<svg xmlns="http://www.w3.org/2000/svg" width="130.687" height="201.6" viewBox="0 0 130.687 201.6">
  <metadata><?xpacket begin="﻿" id="W5M0MpCehiHzreSzNTczkc9d"?>
<x:xmpmeta xmlns:x="adobe:ns:meta/" x:xmptk="Adobe XMP Core 5.6-c142 79.160924, 2017/07/13-01:06:39        ">
   <rdf:RDF xmlns:rdf="http://www.w3.org/1999/02/22-rdf-syntax-ns#">
      <rdf:Description rdf:about=""/>
   </rdf:RDF>
</x:xmpmeta>
                                                                                                    
                                                                                                    
                                                                                                    
                                                                                                    
                                                                                                    
                                                                                                    
                                                                                                    
                                                                                                    
                                                                                                    
                                                                                                    
                                                                                                    
                                                                                                    
                                                                                                    
                                                                                                    
                                                                                                    
                                                                                                    
                                                                                                    
                                                                                                    
                                                                                                    
                                                                                                    
                           
<?xpacket end="w"?></metadata>
<defs>
    <style>
      .cls-1 {
        fill: none;
        stroke: #1da8cf;
        stroke-linecap: round;
        stroke-linejoin: round;
        stroke-width: 2px;
        stroke-dasharray: 0.001 4;
        fill-rule: evenodd;
      }
    </style>
  </defs>
  <path id="Forma_1" data-name="Forma 1" class="cls-1" d="M1017.24,2055c-12.02-7.06-27.948-10.95-44.834-10.95s-32.81,3.89-44.839,10.95c-12.576,7.38-19.5,17.38-19.5,28.17v121.36c0,10.78,6.926,20.79,19.5,28.17,12.029,7.06,27.953,10.95,44.839,10.95s32.814-3.89,44.844-10.95c12.57-7.38,19.5-17.39,19.5-28.17V2083.17C1036.75,2072.38,1029.82,2062.38,1017.24,2055Zm13.07,149.53c0,8.38-5.79,16.39-16.3,22.56-11.06,6.49-25.838,10.06-41.6,10.06s-30.54-3.57-41.6-10.06c-10.512-6.17-16.3-14.18-16.3-22.56v-2.98a47.045,47.045,0,0,0,13.064,10.92c12.029,7.06,27.953,10.95,44.839,10.95s32.814-3.89,44.844-10.95a47,47,0,0,0,13.06-10.92v2.98h0Zm0-20.23c0,8.38-5.79,16.39-16.3,22.56-11.06,6.49-25.838,10.07-41.6,10.07s-30.54-3.58-41.6-10.07c-10.512-6.17-16.3-14.18-16.3-22.56v-2.98a47.069,47.069,0,0,0,13.064,10.93c12.029,7.06,27.953,10.94,44.839,10.94s32.814-3.88,44.844-10.94a47.019,47.019,0,0,0,13.06-10.93v2.98h0Zm0-20.22c0,8.37-5.79,16.38-16.3,22.55-11.06,6.49-25.838,10.07-41.6,10.07s-30.54-3.58-41.6-10.07c-10.512-6.17-16.3-14.18-16.3-22.55v-2.99a46.9,46.9,0,0,0,13.064,10.93c12.029,7.06,27.953,10.95,44.839,10.95s32.814-3.89,44.844-10.95a46.85,46.85,0,0,0,13.06-10.93v2.99h0Zm0-20.23c0,8.38-5.79,16.39-16.3,22.56-11.06,6.49-25.838,10.06-41.6,10.06s-30.54-3.57-41.6-10.06c-10.512-6.17-16.3-14.18-16.3-22.56v-2.98a47.045,47.045,0,0,0,13.064,10.92c12.029,7.06,27.953,10.95,44.839,10.95s32.814-3.89,44.844-10.95a47,47,0,0,0,13.06-10.92v2.98h0Zm0-20.23c0,8.38-5.79,16.39-16.3,22.56-11.06,6.49-25.838,10.07-41.6,10.07s-30.54-3.58-41.6-10.07c-10.512-6.17-16.3-14.18-16.3-22.56v-2.98a47.069,47.069,0,0,0,13.064,10.93c12.029,7.06,27.953,10.94,44.839,10.94s32.814-3.88,44.844-10.94a47.019,47.019,0,0,0,13.06-10.93v2.98h0Zm0-20.22c0,8.37-5.79,16.38-16.3,22.55-11.06,6.5-25.838,10.07-41.6,10.07s-30.54-3.57-41.6-10.07c-10.512-6.17-16.3-14.18-16.3-22.55v-2.99a46.9,46.9,0,0,0,13.064,10.93c12.029,7.06,27.953,10.95,44.839,10.95s32.814-3.89,44.844-10.95a46.85,46.85,0,0,0,13.06-10.93v2.99h0Zm-16.3,2.33c-11.06,6.49-25.838,10.06-41.6,10.06s-30.54-3.57-41.6-10.06c-10.512-6.17-16.3-14.18-16.3-22.56s5.79-16.39,16.3-22.56c11.06-6.49,25.835-10.06,41.6-10.06s30.544,3.57,41.6,10.06c10.51,6.17,16.3,14.18,16.3,22.56S1024.52,2099.56,1014.01,2105.73Zm-4.88-41.68c-10.044-5.23-23.087-8.1-36.724-8.1s-26.68,2.87-36.728,8.1-15.82,12.2-15.82,19.12,5.767,13.89,15.82,19.12,23.092,8.1,36.728,8.1,26.68-2.88,36.724-8.1c10.06-5.23,15.82-12.2,15.82-19.12S1019.19,2069.28,1009.13,2064.05Zm-2.95,32.47c-9.149,4.76-21.145,7.38-33.774,7.38s-24.624-2.62-33.776-7.38c-7.608-3.96-12.334-9.07-12.334-13.35s4.727-9.39,12.334-13.35c9.152-4.76,21.148-7.38,33.776-7.38s24.625,2.62,33.774,7.38c7.61,3.96,12.34,9.07,12.34,13.35S1013.79,2092.56,1006.18,2096.52Zm-28-10.03-9.362-5.75-5.857,2.69,6.853,4.35c1.293,0.82,1,2.11-.662,2.88a6.2,6.2,0,0,1-5.323-.12l-6.733-4.41-8.813,4.05a5.714,5.714,0,0,1-5.046-.12c-1.149-.8-0.774-2.04.828-2.78l8.7-3.99-6.284-4.12c-1.129-.74-0.775-1.91.781-2.63a5.787,5.787,0,0,1,4.894.03l6.4,4.06,25.946-11.92a6.613,6.613,0,0,1,5.254-.02l12.41,6.75c5.76,3.13,5.07,8.31-1.72,11.45C993.635,2090.03,983.577,2089.81,978.181,2086.49Zm18-8.29-9.841-5.52-11.672,5.37,9.522,5.68c2.724,1.62,7.7,1.7,11.05.15S999,2079.78,996.181,2078.2Z" transform="translate(-907.063 -2043.06)"/>
</svg>
