<svg xmlns="http://www.w3.org/2000/svg" width="123.62" height="199.93" viewBox="0 0 123.62 199.93">
  <metadata><?xpacket begin="﻿" id="W5M0MpCehiHzreSzNTczkc9d"?>
<x:xmpmeta xmlns:x="adobe:ns:meta/" x:xmptk="Adobe XMP Core 5.6-c142 79.160924, 2017/07/13-01:06:39        ">
   <rdf:RDF xmlns:rdf="http://www.w3.org/1999/02/22-rdf-syntax-ns#">
      <rdf:Description rdf:about=""/>
   </rdf:RDF>
</x:xmpmeta>
                                                                                                    
                                                                                                    
                                                                                                    
                                                                                                    
                                                                                                    
                                                                                                    
                                                                                                    
                                                                                                    
                                                                                                    
                                                                                                    
                                                                                                    
                                                                                                    
                                                                                                    
                                                                                                    
                                                                                                    
                                                                                                    
                                                                                                    
                                                                                                    
                                                                                                    
                                                                                                    
                           
<?xpacket end="w"?></metadata>
<defs>
    <style>
      .cls-1 {
        fill: none;
        stroke: #1da8cf;
        stroke-linecap: round;
        stroke-width: 2px;
        stroke-dasharray: 0.001 4;
        fill-rule: evenodd;
      }
    </style>
  </defs>
  <path id="Forma_1" data-name="Forma 1" class="cls-1" d="M1379.75,2159.5c6.51-3.77,10.11-11.43,10.15-21.57,0.03-9.51-3.11-20.24-8.84-30.21s-13.42-18.05-21.64-22.78c-8.76-5.04-17.17-5.74-23.68-1.96s-10.12,11.43-10.15,21.57c-0.04,9.51,3.1,20.24,8.83,30.2s13.42,18.06,21.65,22.79a29.383,29.383,0,0,0,14.47,4.36A18.16,18.16,0,0,0,1379.75,2159.5Zm-39.88-27.91c-10.22-17.77-10.67-37.53-.99-43.14a11.845,11.845,0,0,1,6.05-1.54c9.66,0,22.36,9.5,30.68,23.97,10.22,17.78,10.68,37.54.99,43.15a11.919,11.919,0,0,1-6.05,1.54C1360.9,2155.57,1348.2,2146.07,1339.87,2131.59Zm87.53-3.67c-1.68-12.81-6.43-26.29-13.73-38.98-9.34-16.24-21.83-29.41-35.18-37.08-13.88-7.99-27.11-9.14-37.26-3.26-0.86.5-12.07,6.82-19.22,11.02-8.43,4.99-13.68,14.23-15.17,26.74-1.41,11.71.73,25.76,6.02,39.59a0.142,0.142,0,0,0,.02.06l41.91,114.79a3.13,3.13,0,0,0,2.62,2.05c0.11,0.01.22,0.02,0.33,0.02a3.115,3.115,0,0,0,1.56-.42l19-10.89a3.218,3.218,0,0,0,1.11-1.06l41.25-66.03a33.942,33.942,0,0,0,2.51-4.04C1427.62,2151.95,1429.09,2140.71,1427.4,2127.92Zm-108.57-3.97c-0.02-.05-0.04-0.11-0.06-0.16-4.95-12.92-6.97-25.94-5.69-36.67,1.6-13.35,7.57-19.42,12.29-22.16,8.13-4.71,19.14-3.55,31,3.27,12.39,7.13,24.06,19.48,32.85,34.76,13.67,23.77,17.44,50.05,9.39,65.38h0c-0.62,1.18-40.12,64.21-40.12,64.21Zm98.77,33.53c-0.62,1.19-43.1,68.99-43.1,68.99l-7.43,4.26s36.36-57.99,37.1-59.41h0c4.45-8.47,5.92-19.71,4.23-32.5-1.68-12.82-6.43-26.3-13.73-38.99-9.34-16.23-21.83-29.4-35.18-37.08a50.4,50.4,0,0,0-18.76-6.69c1.58-.84,2.84-1.52,3.64-1.99,8.13-4.71,19.14-3.55,31,3.27,12.39,7.13,24.06,19.47,32.85,34.76C1421.89,2115.87,1425.66,2142.14,1417.6,2157.48Z" transform="translate(-1305.44 -2043.91)"/>
</svg>
