<svg xmlns="http://www.w3.org/2000/svg" width="171.688" height="199.84" viewBox="0 0 171.688 199.84">
  <metadata><?xpacket begin="﻿" id="W5M0MpCehiHzreSzNTczkc9d"?>
<x:xmpmeta xmlns:x="adobe:ns:meta/" x:xmptk="Adobe XMP Core 5.6-c142 79.160924, 2017/07/13-01:06:39        ">
   <rdf:RDF xmlns:rdf="http://www.w3.org/1999/02/22-rdf-syntax-ns#">
      <rdf:Description rdf:about=""/>
   </rdf:RDF>
</x:xmpmeta>
                                                                                                    
                                                                                                    
                                                                                                    
                                                                                                    
                                                                                                    
                                                                                                    
                                                                                                    
                                                                                                    
                                                                                                    
                                                                                                    
                                                                                                    
                                                                                                    
                                                                                                    
                                                                                                    
                                                                                                    
                                                                                                    
                                                                                                    
                                                                                                    
                                                                                                    
                                                                                                    
                           
<?xpacket end="w"?></metadata>
<defs>
    <style>
      .cls-1 {
        fill: none;
        stroke: #1da8cf;
        stroke-linecap: round;
        stroke-linejoin: round;
        stroke-width: 2px;
        stroke-dasharray: 0.001 4;
        fill-rule: evenodd;
      }
    </style>
  </defs>
  <path id="Forma_1" data-name="Forma 1" class="cls-1" d="M617.759,2105.25c-12.852-22.26-30.03-40.31-48.369-50.81-18.908-10.84-36.883-12.43-50.615-4.51-0.053.03-29.581,19.31-29.581,19.31-13.653,7.95-21.211,24.28-21.284,46.01-0.072,21.13,6.967,45.03,19.82,67.3s30.03,40.3,48.368,50.81c10.991,6.29,21.665,9.47,31.375,9.47a37.989,37.989,0,0,0,19.241-4.97c1.078-.62,29.538-19.27,29.538-19.27,13.681-7.95,21.254-24.3,21.327-46.04C637.65,2151.41,630.612,2127.51,617.759,2105.25Zm-6.319,2.41-24.819,13.98c-11.27-18.67-25.584-34.17-40.985-44.44l24.808-14.3C585.882,2072.92,600.278,2088.61,611.44,2107.66ZM595.3,2219.54l-51.625-64.87,40.5-23.92c11.221,20.4,17.34,41.94,17.276,61C601.416,2202.82,599.289,2212.25,595.3,2219.54Zm-14.458-94.57-38.83,22.94V2082.8C556.544,2092.51,570.1,2107.21,580.844,2124.97Zm-58.658-69.31c11.067-6.34,25.788-5.14,41.668,3.34l-24.688,14.24c-10.513-5.89-20.722-8.92-30.058-9.04Zm61.194,176.43c-11.59,6.69-27.2,5.08-43.967-4.52-17.332-9.93-33.636-27.1-45.908-48.36s-18.994-43.96-18.927-63.94c0.066-19.32,6.484-33.64,18.074-40.33,11.3-6.52,26.414-5.16,42.692,3.8v75.01a3.311,3.311,0,0,0,.728,2.07h0l55.308,69.5A30.122,30.122,0,0,1,583.38,2232.09Zm29.457-19.23-0.156.09-9.863,6.44c3.442-7.69,5.268-17.01,5.3-27.62,0.068-20.2-6.368-42.94-18.168-64.35l24.74-13.94c10.545,19.81,16.278,40.59,16.216,59.04C630.845,2191.84,624.427,2206.16,612.837,2212.86Z" transform="translate(-466.906 -2043.97)"/>
</svg>
