<svg xmlns="http://www.w3.org/2000/svg" width="77" height="75" viewBox="0 0 77 75">
  <defs>
    <style>
      .cls-1 {
        fill: #fff;
        fill-rule: evenodd;
      }
    </style>
  </defs>
  <path id="Forma_1" data-name="Forma 1" class="cls-1" d="M600.42,737.468a3.791,3.791,0,0,0-7.122.013h-7.806v-5h5.049a1.255,1.255,0,0,0,1.262-1.248h0v-5.228a3.737,3.737,0,0,0,2.308-4.782,3.8,3.8,0,0,0-4.832-2.285,3.736,3.736,0,0,0,0,7.067v3.979h-3.787v-2.5a1.255,1.255,0,0,0-1.262-1.249h-2.525v-6.477a3.738,3.738,0,0,0,2.308-4.783,3.8,3.8,0,0,0-4.833-2.285,3.737,3.737,0,0,0,0,7.068v6.476h-5.049V706.294a1.256,1.256,0,0,0-1.262-1.25h0c-15.572,0-27.771,11.158-27.771,25.4,0,6.766,2.714,15.725,7.084,23.378,0.784,1.374,1.808,2.818,2.891,4.348,2.292,3.232,4.841,6.867,5.119,10.031a3.538,3.538,0,0,0-1.517,2.965,3.693,3.693,0,0,0,.836,2.32,3.832,3.832,0,0,0-1.159,2.765A3.772,3.772,0,0,0,562.139,780H583.6a3.791,3.791,0,0,0,3.788-3.795c0-.013,0-0.027,0-0.041a3.711,3.711,0,0,0-1.162-2.691,3.828,3.828,0,0,0,.839-2.393,3.6,3.6,0,0,0-3.627-3.577c-0.053,0-.106,0-0.16,0h-9.144v-23.78h2.525v3.748a1.255,1.255,0,0,0,1.261,1.249h3.788v1.48a3.737,3.737,0,0,0-2.308,4.782,3.8,3.8,0,0,0,4.832,2.285,3.736,3.736,0,0,0,0-7.067v-2.729a1.254,1.254,0,0,0-1.261-1.249H579.18v-2.5h5.049a1.256,1.256,0,0,0,1.263-1.248h0v-2.5H593.3a3.789,3.789,0,0,0,4.83,2.267A3.73,3.73,0,0,0,600.42,737.468Zm-9.879-16.228a1.25,1.25,0,1,1-1.262,1.25A1.256,1.256,0,0,1,590.541,721.24Zm-33.4,35.5c-1.048-1.479-2.037-2.875-2.762-4.143-4.1-7.19-6.756-15.883-6.756-22.148,0-12.458,10.435-22.3,23.984-22.876V716.3c-0.336.025-.678,0.055-1.043,0.1a1.259,1.259,0,0,0-1.083.982l-0.384,1.811q-0.476.111-.948,0.252l-1.258-1.388a1.269,1.269,0,0,0-1.435-.316,19.051,19.051,0,0,0-3.971,2.3,1.241,1.241,0,0,0-.44,1.387l0.58,1.747q-0.359.333-.7,0.688l-1.764-.573a1.275,1.275,0,0,0-1.4.434,18.69,18.69,0,0,0-2.321,3.932,1.239,1.239,0,0,0,.319,1.42l1.4,1.245q-0.143.462-.253,0.927l-1.963.389a1.251,1.251,0,0,0-1.015,1.224v4.26a1.251,1.251,0,0,0,1.015,1.225l1.963,0.388c0.074,0.31.159,0.62,0.253,0.929l-1.4,1.244a1.241,1.241,0,0,0-.319,1.42,18.686,18.686,0,0,0,2.32,3.932,1.279,1.279,0,0,0,1.4.435l1.763-.574q0.339,0.354.7,0.688l-0.579,1.745a1.243,1.243,0,0,0,.439,1.387,19.023,19.023,0,0,0,3.972,2.3,1.274,1.274,0,0,0,1.435-.316l1.258-1.388q0.473,0.141.948,0.252l0.384,1.809a1.257,1.257,0,0,0,1.082.984c0.367,0.044.709,0.075,1.044,0.1v13.838h-8.945C562.146,763.826,559.511,760.081,557.141,756.736Zm4.367-21.754a11.3,11.3,0,0,0,10.1,11.17v4.3l-0.209-.983a1.259,1.259,0,0,0-1.012-.974,13.9,13.9,0,0,1-2.2-.586,1.268,1.268,0,0,0-1.367.343l-1.187,1.31a16.546,16.546,0,0,1-1.9-1.1l0.548-1.651a1.243,1.243,0,0,0-.384-1.344,13.859,13.859,0,0,1-1.616-1.6,1.277,1.277,0,0,0-1.356-.379l-1.668.543a16.272,16.272,0,0,1-1.116-1.881l1.325-1.175a1.242,1.242,0,0,0,.346-1.353,13.571,13.571,0,0,1-.593-2.176,1.255,1.255,0,0,0-1-1l-1.765-.35v-2.21l1.765-.349a1.254,1.254,0,0,0,1-1,13.554,13.554,0,0,1,.593-2.177,1.243,1.243,0,0,0-.346-1.353l-1.324-1.174a16.408,16.408,0,0,1,1.115-1.881l1.668,0.543a1.28,1.28,0,0,0,1.357-.379,14.124,14.124,0,0,1,1.616-1.6,1.24,1.24,0,0,0,.382-1.341l-0.547-1.65a16.492,16.492,0,0,1,1.9-1.1l1.187,1.311a1.274,1.274,0,0,0,1.367.342,13.788,13.788,0,0,1,2.2-.586,1.256,1.256,0,0,0,1.011-.973l0.21-.983v4.295A11.3,11.3,0,0,0,561.508,734.982Zm10.1-8.645v17.291A8.721,8.721,0,0,1,571.607,726.337Zm13.254,49.915a1.258,1.258,0,0,1-1.263,1.25H562.139a1.279,1.279,0,0,1-1.263-1.294c0-.015,0-0.029,0-0.044a1.257,1.257,0,0,1,1.262-1.249H583.6a1.279,1.279,0,0,1,1.264,1.294C584.862,776.223,584.861,776.238,584.861,776.252Zm-1.586-6.246a1.154,1.154,0,0,1,1.258,1.035c0,0.042,0,.084,0,0.126a1.258,1.258,0,0,1-1.263,1.25H562.462a1.278,1.278,0,0,1-1.263-1.294c0-.015,0-0.029,0-0.043a1.137,1.137,0,0,1,1.188-1.08l0.074,0h20.813Zm-0.308-17.534a1.249,1.249,0,1,1-1.262,1.25A1.256,1.256,0,0,1,582.967,752.472Zm-2.524-37.478a1.25,1.25,0,1,1-1.263,1.249A1.255,1.255,0,0,1,580.443,714.994Zm2.524,26.235h-8.836V728.736h8.836v12.493Zm13.885-1.249a1.25,1.25,0,1,1,1.263-1.25A1.256,1.256,0,0,1,596.852,739.98Zm-11.81,22.169a21.15,21.15,0,0,0-1.179,2.44l2.347,0.92a18.471,18.471,0,0,1,1.043-2.152Zm2.84-4.4c-0.5.7-.991,1.422-1.465,2.147l2.12,1.356c0.458-.7.937-1.393,1.417-2.076Zm2.872-4.157c-0.426.669-.9,1.361-1.4,2.071l2.073,1.424c0.521-.741,1.017-1.465,1.461-2.165Zm2.368-4.354q-0.543,1.123-1.134,2.222l2.226,1.178q0.619-1.146,1.186-2.324Zm1.972-4.585c-0.294.772-.606,1.546-0.936,2.313l2.323,0.979q0.516-1.2.976-2.413Zm5.544-14.456-2.525.019,0,0.229c0,0.7-.033,1.438-0.1,2.2l2.516,0.209c0.07-.83.106-1.64,0.106-2.408V730.2ZM600,724.878l-2.458.569a21.341,21.341,0,0,1,.421,2.368l2.507-.3A23.957,23.957,0,0,0,600,724.878Zm-1.814-5.048-2.27,1.093a21.6,21.6,0,0,1,.942,2.218l2.378-.837A23.987,23.987,0,0,0,598.181,719.83Zm-2.888-4.524-1.977,1.555a22.678,22.678,0,0,1,1.411,1.964l2.134-1.335A25.265,25.265,0,0,0,595.293,715.306Zm-3.783-3.812-1.609,1.925a23.393,23.393,0,0,1,1.8,1.634l1.8-1.753A26.389,26.389,0,0,0,591.51,711.494Zm-4.466-2.978-1.2,2.2c0.721,0.386,1.427.808,2.1,1.254l1.409-2.073C588.612,709.4,587.836,708.941,587.044,708.516Zm-4.948-2.073-0.765,2.382c0.787,0.246,1.56.529,2.3,0.84l0.987-2.3C583.806,707.024,582.957,706.714,582.1,706.443Zm-5.238-1.146-0.323,2.478c0.815,0.1,1.629.244,2.422,0.419l0.546-2.44C578.637,705.565,577.747,705.411,576.858,705.3ZM537.525,772.46h2.524v2.5h-2.524v-2.5Zm0,5h2.524v2.5h-2.524v-2.5Zm2.524-2.5h2.525v2.5h-2.525v-2.5Zm-5.049,0h2.525v2.5H535v-2.5ZM606.951,705h2.524v2.5h-2.524V705Zm0,5h2.524v2.5h-2.524V710Zm2.524-2.5H612V710h-2.525v-2.5Zm-5.049,0h2.525V710h-2.525v-2.5Z" transform="translate(-535 -705)"/>
</svg>
