<svg xmlns="http://www.w3.org/2000/svg" width="74" height="61" viewBox="0 0 74 61">
  <metadata><?xpacket begin="﻿" id="W5M0MpCehiHzreSzNTczkc9d"?>
<x:xmpmeta xmlns:x="adobe:ns:meta/" x:xmptk="Adobe XMP Core 5.6-c142 79.160924, 2017/07/13-01:06:39        ">
   <rdf:RDF xmlns:rdf="http://www.w3.org/1999/02/22-rdf-syntax-ns#">
      <rdf:Description rdf:about=""/>
   </rdf:RDF>
</x:xmpmeta>
                                                                                                    
                                                                                                    
                                                                                                    
                                                                                                    
                                                                                                    
                                                                                                    
                                                                                                    
                                                                                                    
                                                                                                    
                                                                                                    
                                                                                                    
                                                                                                    
                                                                                                    
                                                                                                    
                                                                                                    
                                                                                                    
                                                                                                    
                                                                                                    
                                                                                                    
                                                                                                    
                           
<?xpacket end="w"?></metadata>
<defs>
    <style>
      .cls-1 {
        fill: #fff;
        fill-rule: evenodd;
      }
    </style>
  </defs>
  <path id="Forma_1" data-name="Forma 1" class="cls-1" d="M1380.92,761.376a1.088,1.088,0,0,0,1.08-1.088v-3.241a1.088,1.088,0,0,0-1.08-1.088h-7.88a28.25,28.25,0,0,0,.82-18.7h2.38a1.082,1.082,0,0,0,1.08-1.089V730.22a1.083,1.083,0,0,0-1.08-1.089h-6.4a27.87,27.87,0,0,0-22.63-11.651h-0.15a27.667,27.667,0,0,0-8.85,1.493v-2.885a1.082,1.082,0,0,0-1.08-1.088h-28.05a1.088,1.088,0,0,0-1.08,1.088v17.865a1.088,1.088,0,0,0,1.08,1.088h3.44a1.089,1.089,0,0,0,0-2.177h-2.35V717.176h25.87v18.377l-4.87-2.564a1.035,1.035,0,0,0-.5-0.124h-13.21a1.088,1.088,0,1,0,0,2.176h3.88a28.273,28.273,0,0,0-1.44,15.972,1.093,1.093,0,0,0,1.06.874,1.171,1.171,0,0,0,.22-0.021,1.1,1.1,0,0,0,.85-1.283,25.5,25.5,0,0,1-.48-3.9l9.48-.053c0.02,0.855.07,1.709,0.13,2.553h-2.87a1.082,1.082,0,0,0-1.08,1.088v7.087a1.1,1.1,0,0,0,.52.932,1.1,1.1,0,0,0,1.07.032l1.91-1.009h1.85a35.819,35.819,0,0,0,1.34,4.021,27.645,27.645,0,0,0-4.27,2.937,25.772,25.772,0,0,1-6.01-8.581,1.085,1.085,0,1,0-1.99.865,27.835,27.835,0,0,0,25.58,16.869h0.16a28.1,28.1,0,0,0,4.42-.379v1.865a1.082,1.082,0,0,0,1.08,1.088h28.05a1.088,1.088,0,0,0,1.08-1.088v-9.665a1.085,1.085,0,1,0-2.17,0v8.576h-25.87V755.447l4.87,2.564a1.035,1.035,0,0,0,.5.124h20.5v2.153A1.09,1.09,0,0,0,1380.92,761.376Zm-34.72-3.53a27.782,27.782,0,0,0-10.36,2.5c-0.38-.961-0.72-1.974-1.03-3.036h2.83a1.082,1.082,0,0,0,1.08-1.089v-5.953a1.082,1.082,0,0,0-1.08-1.088h-4.3c-0.07-.848-0.12-1.7-0.15-2.566l12.94-.072Zm-7.99-36.561c0.36-.136.73-0.263,1.09-0.382-0.37.351-.73,0.728-1.09,1.131v-0.749Zm0,4.335v0c2.22-3.393,4.95-5.44,7.77-5.872l0.07,11.15a25.408,25.408,0,0,1-7.84-1.529V725.62Zm-1.58,12.7a1.063,1.063,0,0,0,.5.123,1.079,1.079,0,0,0,.56-0.157,1.1,1.1,0,0,0,.52-0.931v-0.461h0.02a1.623,1.623,0,1,1-1.62,1.623A1.289,1.289,0,0,1,1336.63,738.318Zm-2.69-1.414,0.71,0.375a3.949,3.949,0,0,0-.2,1.235,3.78,3.78,0,1,0,3.78-3.8h-0.02v-3.047a27.519,27.519,0,0,0,7.85,1.4l0.06,11.3-12.94.073A45.212,45.212,0,0,1,1333.94,736.9Zm-2.93,7.551-9.48.053a25.708,25.708,0,0,1,2.17-9.467h6.7l1.54,0.809A46.484,46.484,0,0,0,1331.01,744.455Zm-0.57,10.683h0a1.094,1.094,0,0,0-.5.124l-0.56.3v-4.2h7.17v3.777h-6.11Zm0.85,10.576a25.659,25.659,0,0,1,3.49-2.377,24.489,24.489,0,0,0,3.4,5.31,18.406,18.406,0,0,0,1.38,1.437A25.673,25.673,0,0,1,1331.29,765.714Zm5.41-3.367a25.628,25.628,0,0,1,9.51-2.323l0.06,11.152C1342.57,770.661,1339.14,767.429,1336.7,762.347Zm31.28-31.04h7.18v3.778h-6.11a1.1,1.1,0,0,0-.51.125l-0.56.3v-4.2Zm-0.87-2.176h-0.22a1.089,1.089,0,0,0-1.08,1.089v7.087a1.1,1.1,0,0,0,.52.931,1.115,1.115,0,0,0,.56.157,1.081,1.081,0,0,0,.51-0.125l1.91-1.008h2.27a26.058,26.058,0,0,1,1.3,6.96l-5.56.031v-1.734a1.082,1.082,0,0,0-1.08-1.088h-3.01a41.509,41.509,0,0,0-2.71-11.86,28.168,28.168,0,0,0,4.27-2.931A27.06,27.06,0,0,1,1367.11,729.131Zm-9.13,14.476h7.17v3.777h-6.11a1.1,1.1,0,0,0-.5.125l-0.56.3v-4.2h0Zm5.14-18.406a25.6,25.6,0,0,1-3.48,2.369,29.341,29.341,0,0,0-1.55-2.807,20.357,20.357,0,0,0-3.22-3.933A25.772,25.772,0,0,1,1363.12,725.2Zm-14.97-5.47c2.96,0.414,5.8,2.579,8.11,6.205a24.252,24.252,0,0,1,1.45,2.625,25.575,25.575,0,0,1-9.5,2.321Zm0.08,13.329a27.8,27.8,0,0,0,10.35-2.5,39.853,39.853,0,0,1,2.48,10.875h-4.17a1.082,1.082,0,0,0-1.08,1.088v1.8l-7.52.043Zm3.56,36.813a8.673,8.673,0,0,1-3.35,1.291l-0.06-11.152a25.6,25.6,0,0,1,3.41.353v9.508Zm8.26-13.914h-0.45l-6.22-3.276a1.083,1.083,0,0,0-1.59.964v4.513a28.437,28.437,0,0,0-3.43-.325l-0.06-11.3,7.51-.042v3.113a1.1,1.1,0,0,0,.52.931,1.079,1.079,0,0,0,.56.157,1.122,1.122,0,0,0,.51-0.124l1.91-1.009h1.77A42.183,42.183,0,0,1,1360.05,755.959Zm10.63,0h-8.4a45.3,45.3,0,0,0,.98-6.4h2.98a1.082,1.082,0,0,0,1.08-1.088v-2.044l5.57-.031A25.6,25.6,0,0,1,1370.68,755.959Zm4.6,4.765h-11.84a1.088,1.088,0,1,0,0,2.176h11.84A1.088,1.088,0,1,0,1375.28,760.724Zm-15.56,0h-1.21a1.088,1.088,0,1,0,0,2.176h1.21A1.088,1.088,0,0,0,1359.72,760.724Zm15.56,4.167h-16.77a1.088,1.088,0,1,0,0,2.176h16.77A1.088,1.088,0,1,0,1375.28,764.891Zm0,4.167h-1.9a1.089,1.089,0,0,0,0,2.177h1.9A1.089,1.089,0,1,0,1375.28,769.058Zm-5.36,0h-11.41a1.089,1.089,0,1,0,0,2.177h11.41A1.089,1.089,0,1,0,1369.92,769.058ZM1326.56,728.1h-11.84a1.089,1.089,0,1,0,0,2.177h11.84A1.089,1.089,0,1,0,1326.56,728.1Zm4.93,0h-1.21a1.089,1.089,0,0,0,0,2.177h1.21A1.089,1.089,0,1,0,1331.49,728.1Zm0-4.167h-16.77a1.089,1.089,0,1,0,0,2.177h16.77A1.089,1.089,0,1,0,1331.49,723.932Zm-14.87-4.167h-1.9a1.088,1.088,0,1,0,0,2.176h1.9A1.088,1.088,0,0,0,1316.62,719.765Zm14.87,0h-11.41a1.088,1.088,0,1,0,0,2.176h11.41A1.088,1.088,0,1,0,1331.49,719.765Z" transform="translate(-1308 -715)"/>
</svg>
