<svg xmlns="http://www.w3.org/2000/svg" width="90" height="88" viewBox="0 0 90 88">
  <metadata><?xpacket begin="﻿" id="W5M0MpCehiHzreSzNTczkc9d"?>
<x:xmpmeta xmlns:x="adobe:ns:meta/" x:xmptk="Adobe XMP Core 5.6-c142 79.160924, 2017/07/13-01:06:39        ">
   <rdf:RDF xmlns:rdf="http://www.w3.org/1999/02/22-rdf-syntax-ns#">
      <rdf:Description rdf:about=""/>
   </rdf:RDF>
</x:xmpmeta>
                                                                                                    
                                                                                                    
                                                                                                    
                                                                                                    
                                                                                                    
                                                                                                    
                                                                                                    
                                                                                                    
                                                                                                    
                                                                                                    
                                                                                                    
                                                                                                    
                                                                                                    
                                                                                                    
                                                                                                    
                                                                                                    
                                                                                                    
                                                                                                    
                                                                                                    
                                                                                                    
                           
<?xpacket end="w"?></metadata>
<defs>
    <style>
      .cls-1 {
        fill: #fff;
        fill-rule: evenodd;
      }
    </style>
  </defs>
  <path id="Forma_1" data-name="Forma 1" class="cls-1" d="M969.679,775.556h-6.228a20.094,20.094,0,0,0-1.925-4.665l4.4-4.42a1.293,1.293,0,0,0,0-1.823l-5.739-5.76a1.281,1.281,0,0,0-1.816,0l-4.4,4.42a19.941,19.941,0,0,0-4.647-1.932v-6.251a1.287,1.287,0,0,0-1.285-1.289h-8.115a1.287,1.287,0,0,0-1.285,1.289v6.251a19.958,19.958,0,0,0-4.647,1.932l-4.4-4.42a1.281,1.281,0,0,0-1.816,0l-5.739,5.76a1.293,1.293,0,0,0,0,1.823l4.4,4.42a20.094,20.094,0,0,0-1.925,4.665h-6.228A1.287,1.287,0,0,0,917,776.845v8.146a1.287,1.287,0,0,0,1.284,1.289h6.228a20.069,20.069,0,0,0,1.925,4.664l-4.4,4.421a1.292,1.292,0,0,0,0,1.822l5.739,5.761a1.281,1.281,0,0,0,1.816,0l4.4-4.421a19.919,19.919,0,0,0,4.647,1.933v6.251A1.287,1.287,0,0,0,939.924,808h8.115a1.287,1.287,0,0,0,1.284-1.289V800.46a19.948,19.948,0,0,0,4.648-1.932l4.4,4.42a1.281,1.281,0,0,0,1.816,0l5.739-5.76a1.293,1.293,0,0,0,0-1.823l-4.4-4.421a20.087,20.087,0,0,0,1.925-4.664h6.228a1.287,1.287,0,0,0,1.284-1.289v-8.146A1.287,1.287,0,0,0,969.679,775.556ZM968.4,783.7h-5.95a1.285,1.285,0,0,0-1.255,1.013,17.573,17.573,0,0,1-2.365,5.731,1.292,1.292,0,0,0,.173,1.607l4.207,4.223-3.922,3.937-4.207-4.223a1.28,1.28,0,0,0-1.6-.173,17.435,17.435,0,0,1-5.71,2.373,1.289,1.289,0,0,0-1.01,1.26v5.972h-5.547V799.45a1.289,1.289,0,0,0-1.01-1.26,17.421,17.421,0,0,1-5.709-2.373,1.279,1.279,0,0,0-1.6.173l-4.208,4.223-3.922-3.937,4.207-4.223a1.292,1.292,0,0,0,.173-1.607,17.573,17.573,0,0,1-2.365-5.731,1.285,1.285,0,0,0-1.255-1.013h-5.95v-5.568h5.95a1.286,1.286,0,0,0,1.255-1.014,17.559,17.559,0,0,1,2.365-5.73,1.293,1.293,0,0,0-.173-1.608l-4.207-4.223,3.922-3.936,4.207,4.223a1.282,1.282,0,0,0,1.6.173,17.4,17.4,0,0,1,5.709-2.373,1.289,1.289,0,0,0,1.01-1.26v-5.972h5.547v5.972a1.289,1.289,0,0,0,1.01,1.26,17.4,17.4,0,0,1,5.71,2.374,1.281,1.281,0,0,0,1.6-.174l4.207-4.223,3.922,3.937L959,769.782a1.293,1.293,0,0,0-.173,1.608,17.546,17.546,0,0,1,2.365,5.73,1.286,1.286,0,0,0,1.255,1.014h5.95V783.7h0Zm-12.8-5.2a11.905,11.905,0,0,0-7.9-8.889,1.289,1.289,0,0,0-.8,2.449,9.323,9.323,0,0,1,6.188,6.96A1.285,1.285,0,1,0,955.591,778.506Zm-1.26,4.927a1.282,1.282,0,0,0-1.653.755,9.293,9.293,0,1,1-10.934-12.316,1.289,1.289,0,0,0-.616-2.5,11.893,11.893,0,1,0,13.955,15.724A1.291,1.291,0,0,0,954.331,783.433Zm51.389-30.88h-4.53a16.215,16.215,0,0,0-1.328-3.208l3.2-3.215a1.283,1.283,0,0,0,0-1.823l-4.38-4.4a1.283,1.283,0,0,0-1.817,0l-3.2,3.215a15.572,15.572,0,0,0-3.2-1.329v-4.546a1.287,1.287,0,0,0-1.284-1.29h-6.2a1.287,1.287,0,0,0-1.284,1.29v4.546a15.549,15.549,0,0,0-3.2,1.329l-3.2-3.215a1.281,1.281,0,0,0-1.816,0l-4.385,4.4a1.293,1.293,0,0,0,0,1.823l3.2,3.215a15.623,15.623,0,0,0-1.324,3.208h-4.53a1.287,1.287,0,0,0-1.284,1.29v6.224a1.287,1.287,0,0,0,1.284,1.289h4.53a15.609,15.609,0,0,0,1.324,3.209l-3.2,3.215a1.292,1.292,0,0,0,0,1.823l4.385,4.4a1.28,1.28,0,0,0,1.816,0l3.2-3.214a15.549,15.549,0,0,0,3.2,1.329v4.546a1.287,1.287,0,0,0,1.284,1.289h6.2a1.287,1.287,0,0,0,1.284-1.289v-4.546a15.521,15.521,0,0,0,3.2-1.33l3.2,3.215a1.281,1.281,0,0,0,1.817,0l4.38-4.4a1.277,1.277,0,0,0,0-1.823l-3.2-3.215a16.2,16.2,0,0,0,1.328-3.209h4.53a1.289,1.289,0,0,0,1.28-1.289v-6.224A1.289,1.289,0,0,0,1005.72,752.553Zm-5.53,6.225a1.286,1.286,0,0,0-1.257,1.014,13.128,13.128,0,0,1-1.766,4.28,1.292,1.292,0,0,0,.173,1.607l3,3.012-2.569,2.579-3-3.012a1.281,1.281,0,0,0-1.6-.174,13.018,13.018,0,0,1-4.265,1.773,1.288,1.288,0,0,0-1.01,1.259v4.26h-3.633v-4.26a1.287,1.287,0,0,0-1.01-1.259,13.013,13.013,0,0,1-4.264-1.773,1.281,1.281,0,0,0-1.6.174l-3,3.012-2.569-2.579,3-3.012a1.292,1.292,0,0,0,.173-1.607,13.128,13.128,0,0,1-1.766-4.28,1.286,1.286,0,0,0-1.255-1.014h-4.244v-3.646h4.244a1.287,1.287,0,0,0,1.255-1.014,13.128,13.128,0,0,1,1.766-4.28,1.292,1.292,0,0,0-.173-1.607l-3-3.013,2.569-2.578,3,3.012a1.281,1.281,0,0,0,1.6.174,13.009,13.009,0,0,1,4.265-1.773,1.287,1.287,0,0,0,1.009-1.259v-4.26H987.9v4.26a1.289,1.289,0,0,0,1.01,1.259,13.018,13.018,0,0,1,4.265,1.773,1.281,1.281,0,0,0,1.6-.174l3-3.012,2.569,2.578-3,3.013a1.292,1.292,0,0,0-.173,1.607,13.128,13.128,0,0,1,1.766,4.28,1.287,1.287,0,0,0,1.257,1.014h4.24v3.646h-4.24Zm-6.118-.09a1.283,1.283,0,0,0-1.662.736,6.833,6.833,0,1,1,0-4.942,1.285,1.285,0,1,0,2.394-.933,9.419,9.419,0,1,0,0,6.807A1.291,1.291,0,0,0,994.072,758.688ZM969.253,733.05H965.9a12.586,12.586,0,0,0-.907-2.2l2.374-2.382a1.293,1.293,0,0,0,0-1.823l-3.448-3.461a1.28,1.28,0,0,0-1.816,0l-2.374,2.382a12.574,12.574,0,0,0-2.189-.91V721.29a1.287,1.287,0,0,0-1.284-1.29h-4.876a1.287,1.287,0,0,0-1.284,1.29v3.368a12.542,12.542,0,0,0-2.189.91l-2.374-2.382a1.28,1.28,0,0,0-1.816,0l-3.448,3.461a1.293,1.293,0,0,0,0,1.823l2.374,2.382a12.51,12.51,0,0,0-.907,2.2h-3.357a1.286,1.286,0,0,0-1.284,1.288v4.895a1.286,1.286,0,0,0,1.284,1.288h3.356a12.618,12.618,0,0,0,.907,2.2l-2.373,2.382a1.292,1.292,0,0,0,0,1.824l3.448,3.46a1.282,1.282,0,0,0,1.816,0L947.9,748a12.493,12.493,0,0,0,2.189.909v3.37a1.287,1.287,0,0,0,1.285,1.289h4.876a1.287,1.287,0,0,0,1.284-1.289v-3.37a12.493,12.493,0,0,0,2.189-.909l2.374,2.382a1.282,1.282,0,0,0,1.816,0l3.448-3.46a1.294,1.294,0,0,0,0-1.824l-2.374-2.382a12.618,12.618,0,0,0,.907-2.2h3.357a1.286,1.286,0,0,0,1.284-1.288v-4.895A1.286,1.286,0,0,0,969.253,733.05Zm-1.285,4.893h-3.062a1.285,1.285,0,0,0-1.254,1.014,10.018,10.018,0,0,1-1.352,3.275,1.292,1.292,0,0,0,.173,1.607l2.166,2.173-1.632,1.638-2.165-2.173a1.281,1.281,0,0,0-1.6-.174,9.967,9.967,0,0,1-3.263,1.357,1.289,1.289,0,0,0-1.01,1.259v3.074H952.66v-3.074a1.288,1.288,0,0,0-1.01-1.259,9.985,9.985,0,0,1-3.263-1.357,1.281,1.281,0,0,0-1.6.174l-2.165,2.173-1.632-1.638,2.165-2.173a1.292,1.292,0,0,0,.173-1.607,10.038,10.038,0,0,1-1.351-3.275,1.286,1.286,0,0,0-1.255-1.014h-3.062v-2.316h3.062a1.286,1.286,0,0,0,1.255-1.013,10.043,10.043,0,0,1,1.351-3.276,1.292,1.292,0,0,0-.173-1.607l-2.165-2.173,1.632-1.638,2.165,2.174a1.281,1.281,0,0,0,1.6.174,9.942,9.942,0,0,1,3.263-1.357,1.288,1.288,0,0,0,1.01-1.259v-3.074h2.307v3.074a1.29,1.29,0,0,0,1.01,1.259,9.946,9.946,0,0,1,3.263,1.357,1.282,1.282,0,0,0,1.6-.174l2.165-2.174,1.632,1.638-2.166,2.173a1.292,1.292,0,0,0-.173,1.607,10.033,10.033,0,0,1,1.352,3.276,1.285,1.285,0,0,0,1.254,1.013h3.062v2.316Zm-14.154-7.638a6.481,6.481,0,1,0,6.457,6.481A6.476,6.476,0,0,0,953.814,730.305Zm0,10.383a3.9,3.9,0,1,1,3.888-3.9A3.9,3.9,0,0,1,953.814,740.688ZM976.8,726.217h0a1.288,1.288,0,0,0-1.285,1.286l0,0.791a1.288,1.288,0,0,0,1.281,1.293h0a1.288,1.288,0,0,0,1.285-1.286l0-.791A1.287,1.287,0,0,0,976.8,726.217Zm-0.015,5.222h0a1.287,1.287,0,0,0-1.284,1.285l0,0.792a1.286,1.286,0,0,0,1.28,1.292h0a1.286,1.286,0,0,0,1.284-1.285l0-.791A1.287,1.287,0,0,0,976.782,731.439Zm3-2.206-0.788,0h0a1.289,1.289,0,0,0,0,2.578l0.788,0h0A1.289,1.289,0,0,0,979.784,729.233Zm-5.2-.016-0.788,0h0a1.289,1.289,0,0,0,0,2.578l0.788,0h0A1.289,1.289,0,0,0,974.582,729.217Zm-42.2,14.617h0a1.287,1.287,0,0,0-1.284,1.286l0,0.791a1.286,1.286,0,0,0,1.28,1.293h0a1.287,1.287,0,0,0,1.284-1.286l0-.79A1.287,1.287,0,0,0,932.385,743.834Zm-0.015,5.223h0a1.286,1.286,0,0,0-1.284,1.285l0,0.791a1.287,1.287,0,0,0,1.28,1.293h0a1.286,1.286,0,0,0,1.284-1.285l0-.791A1.285,1.285,0,0,0,932.37,749.057Zm3-2.207-0.788,0h0a1.289,1.289,0,0,0,0,2.578l0.788,0h0A1.289,1.289,0,0,0,935.372,746.85Zm-5.2-.015-0.788,0h0a1.289,1.289,0,0,0,0,2.578h0.792A1.289,1.289,0,0,0,930.169,746.835ZM977.813,780h0a1.287,1.287,0,0,0-1.284,1.285l0,0.792a1.285,1.285,0,0,0,1.28,1.292h0a1.286,1.286,0,0,0,1.284-1.285l0-.791A1.287,1.287,0,0,0,977.813,780Zm-0.015,5.222h0a1.286,1.286,0,0,0-1.284,1.285l0,0.791a1.286,1.286,0,0,0,1.281,1.293h0a1.286,1.286,0,0,0,1.284-1.285l0-.791A1.287,1.287,0,0,0,977.8,785.222Zm3-2.207-0.788,0h0a1.289,1.289,0,0,0,0,2.578l0.788,0h0A1.29,1.29,0,0,0,980.8,783.015ZM975.6,783l-0.788,0h0a1.289,1.289,0,0,0,0,2.578l0.788,0h0A1.289,1.289,0,0,0,975.6,783Z" transform="translate(-917 -720)"/>
</svg>
