<svg xmlns="http://www.w3.org/2000/svg" xmlns:xlink="http://www.w3.org/1999/xlink" width="84" height="75" viewBox="0 0 84 75">
  <metadata><?xpacket begin="﻿" id="W5M0MpCehiHzreSzNTczkc9d"?>
<x:xmpmeta xmlns:x="adobe:ns:meta/" x:xmptk="Adobe XMP Core 5.6-c142 79.160924, 2017/07/13-01:06:39        ">
   <rdf:RDF xmlns:rdf="http://www.w3.org/1999/02/22-rdf-syntax-ns#">
      <rdf:Description rdf:about=""/>
   </rdf:RDF>
</x:xmpmeta>
                                                                                                    
                                                                                                    
                                                                                                    
                                                                                                    
                                                                                                    
                                                                                                    
                                                                                                    
                                                                                                    
                                                                                                    
                                                                                                    
                                                                                                    
                                                                                                    
                                                                                                    
                                                                                                    
                                                                                                    
                                                                                                    
                                                                                                    
                                                                                                    
                                                                                                    
                                                                                                    
                           
<?xpacket end="w"?></metadata>
<defs>
    <style>
      .cls-1 {
        fill-rule: evenodd;
        fill: url(#linear-gradient);
      }
    </style>
    <linearGradient id="linear-gradient" x1="963" y1="2814" x2="963" y2="2739" gradientUnits="userSpaceOnUse">
      <stop offset="0" stop-color="#253961"/>
      <stop offset="1" stop-color="#1da2c9"/>
    </linearGradient>
  </defs>
  <path id="Forma_1" data-name="Forma 1" class="cls-1" d="M941.493,2739l-2.826,2.82a1.466,1.466,0,0,0-.709-0.19H922.542a1.541,1.541,0,0,0-1.542,1.54v15.4a1.541,1.541,0,0,0,1.542,1.54h15.416a1.541,1.541,0,0,0,1.542-1.54v-13.22l4.173-4.17Zm-5.076,18.03H924.083v-12.32h11.7l-5.528,5.52-1.994-1.99-2.179,2.18,3.083,3.08a1.545,1.545,0,0,0,2.18,0l5.077-5.08v8.61Zm5.076,9.69-2.826,2.82a1.6,1.6,0,0,0-.709-0.2H922.542a1.541,1.541,0,0,0-1.542,1.54v15.4a1.541,1.541,0,0,0,1.542,1.54h15.416a1.541,1.541,0,0,0,1.542-1.54v-13.22l4.173-4.17Zm-5.076,18.02H924.083v-12.32h11.7l-5.528,5.53-1.994-1.99-2.179,2.17,3.083,3.08a1.545,1.545,0,0,0,2.18,0l5.077-5.07v8.6Zm5.076,8.15-2.826,2.82a1.586,1.586,0,0,0-.709-0.19H922.542a1.541,1.541,0,0,0-1.542,1.54v15.4a1.541,1.541,0,0,0,1.542,1.54h15.416a1.541,1.541,0,0,0,1.542-1.54v-13.22l4.173-4.17Zm-5.076,18.03H924.083V2798.6h11.7l-5.528,5.52-1.994-1.99-2.179,2.18,3.083,3.08a1.545,1.545,0,0,0,2.18,0l5.077-5.07v8.6Zm13.875-56.97H1005v3.08H950.292v-3.08Zm0-9.24H1005v3.08H950.292v-3.08Zm0,36.95H1005v3.08H950.292v-3.08Zm0-9.24H1005v3.08H950.292v-3.08Zm0,35.42H1005v3.08H950.292v-3.08Zm0-9.24H1005v3.08H950.292v-3.08Z" transform="translate(-921 -2739)"/>
</svg>
