<svg xmlns="http://www.w3.org/2000/svg" xmlns:xlink="http://www.w3.org/1999/xlink" width="76" height="59" viewBox="0 0 76 59">
  <metadata><?xpacket begin="﻿" id="W5M0MpCehiHzreSzNTczkc9d"?>
<x:xmpmeta xmlns:x="adobe:ns:meta/" x:xmptk="Adobe XMP Core 5.6-c142 79.160924, 2017/07/13-01:06:39        ">
   <rdf:RDF xmlns:rdf="http://www.w3.org/1999/02/22-rdf-syntax-ns#">
      <rdf:Description rdf:about=""/>
   </rdf:RDF>
</x:xmpmeta>
                                                                                                    
                                                                                                    
                                                                                                    
                                                                                                    
                                                                                                    
                                                                                                    
                                                                                                    
                                                                                                    
                                                                                                    
                                                                                                    
                                                                                                    
                                                                                                    
                                                                                                    
                                                                                                    
                                                                                                    
                                                                                                    
                                                                                                    
                                                                                                    
                                                                                                    
                                                                                                    
                           
<?xpacket end="w"?></metadata>
<defs>
    <style>
      .cls-1 {
        fill-rule: evenodd;
        fill: url(#linear-gradient);
      }
    </style>
    <linearGradient id="linear-gradient" x1="725" y1="3029" x2="725" y2="2970" gradientUnits="userSpaceOnUse">
      <stop offset="0" stop-color="#253961"/>
      <stop offset="1" stop-color="#1da2c9"/>
    </linearGradient>
  </defs>
  <path id="Forma_1" data-name="Forma 1" class="cls-1" d="M756.88,2988.23l-15.931-16.09a7.2,7.2,0,0,0-10.256,0,7.335,7.335,0,0,0-2.1,4.71,7.262,7.262,0,0,0-9.593,6.46,7.232,7.232,0,0,0-7.489,1.75,7.329,7.329,0,0,0-1.989,3.78l-10.14-10.24A7.251,7.251,0,0,0,687,2983.78a7.31,7.31,0,0,0,2.123,5.18l24.12,24.36-12.886,1.86a9.081,9.081,0,0,0-7.7,8.97,4.826,4.826,0,0,0,4.8,4.85h41.343a17.37,17.37,0,0,0,12.433-5.21l5.654-5.71A21.259,21.259,0,0,0,756.88,2988.23Zm-2.255,27.57-5.653,5.71a14.228,14.228,0,0,1-10.179,4.26H697.45a1.609,1.609,0,0,1-1.6-1.62,5.842,5.842,0,0,1,4.957-5.77l16.055-2.32a1.592,1.592,0,0,0,1.292-1.08,1.636,1.636,0,0,0-.387-1.66l-26.381-26.64a4.131,4.131,0,0,1,0-5.79,4.021,4.021,0,0,1,5.731,0l19.985,20.18a1.589,1.589,0,0,0,2.261,0,1.618,1.618,0,0,0,.467-1.14,1.6,1.6,0,0,0-.467-1.14l-5.6-5.65a4.074,4.074,0,0,1,5.734-5.79l5.6,5.65a1.589,1.589,0,0,0,2.261,0,1.64,1.64,0,0,0,0-2.29l-4-4.03a4.131,4.131,0,0,1,0-5.79,4.025,4.025,0,0,1,5.734,0l4,4.03a1.589,1.589,0,0,0,2.261,0,1.625,1.625,0,0,0,0-2.28l-2.4-2.43a4.07,4.07,0,1,1,5.733-5.78l15.938,16.09A18,18,0,0,1,754.625,3015.8Z" transform="translate(-687 -2970)"/>
</svg>
