<svg xmlns="http://www.w3.org/2000/svg" xmlns:xlink="http://www.w3.org/1999/xlink" width="93" height="80" viewBox="0 0 93 80">
  <metadata><?xpacket begin="﻿" id="W5M0MpCehiHzreSzNTczkc9d"?>
<x:xmpmeta xmlns:x="adobe:ns:meta/" x:xmptk="Adobe XMP Core 5.6-c142 79.160924, 2017/07/13-01:06:39        ">
   <rdf:RDF xmlns:rdf="http://www.w3.org/1999/02/22-rdf-syntax-ns#">
      <rdf:Description rdf:about=""/>
   </rdf:RDF>
</x:xmpmeta>
                                                                                                    
                                                                                                    
                                                                                                    
                                                                                                    
                                                                                                    
                                                                                                    
                                                                                                    
                                                                                                    
                                                                                                    
                                                                                                    
                                                                                                    
                                                                                                    
                                                                                                    
                                                                                                    
                                                                                                    
                                                                                                    
                                                                                                    
                                                                                                    
                                                                                                    
                                                                                                    
                           
<?xpacket end="w"?></metadata>
<defs>
    <style>
      .cls-1 {
        fill-rule: evenodd;
        fill: url(#linear-gradient);
      }
    </style>
    <linearGradient id="linear-gradient" x1="489.5" y1="2817" x2="489.5" y2="2737" gradientUnits="userSpaceOnUse">
      <stop offset="0" stop-color="#253961"/>
      <stop offset="1" stop-color="#1da2c9"/>
    </linearGradient>
  </defs>
  <path id="Forma_1" data-name="Forma 1" class="cls-1" d="M504.5,2750.56c-19.42-.07-39.188-0.07-58.78-0.01v-8.6a2.247,2.247,0,0,1,2.242-2.24h49.107a1.355,1.355,0,1,0,0-2.71H447.966a4.963,4.963,0,0,0-4.966,4.95V2814a3.011,3.011,0,0,0,3.009,3h6.864a1.36,1.36,0,1,0,0-2.72h-6.864a0.279,0.279,0,0,1-.285-0.28v-60.73c19.589-.07,39.353-0.07,58.77,0h0A1.355,1.355,0,1,0,504.5,2750.56Zm26.53-13.56h-28.4a1.355,1.355,0,1,0,0,2.71h28.4a2.246,2.246,0,0,1,2.241,2.24v8.6c-7.655-.06-15.127-0.06-22.792.01a1.355,1.355,0,1,0,.012,2.71h0.012c7.656-.07,15.121-0.07,22.768-0.01V2814a0.279,0.279,0,0,1-.285.28H458.435a1.36,1.36,0,1,0,0,2.72H532.99a3.011,3.011,0,0,0,3.01-3v-72.05A4.963,4.963,0,0,0,531.034,2737Zm-25.969,7.03H456.47a1.355,1.355,0,1,0,0,2.71h48.595A1.355,1.355,0,1,0,505.065,2744.03Zm6.589-.37a1.362,1.362,0,0,0-1.363,1.36v0.23a1.363,1.363,0,0,0,2.725,0v-0.23A1.362,1.362,0,0,0,511.654,2743.66Zm5.437,0a1.362,1.362,0,0,0-1.362,1.36v0.23a1.363,1.363,0,0,0,2.725,0v-0.23A1.362,1.362,0,0,0,517.091,2743.66Zm5.438,0a1.362,1.362,0,0,0-1.362,1.36v0.23a1.363,1.363,0,0,0,2.725,0v-0.23A1.362,1.362,0,0,0,522.529,2743.66Zm-49.611,37.55v-8.54a6.054,6.054,0,0,0-12.108,0v8.54a3.278,3.278,0,0,0-3.242,3.27v11.97a3.288,3.288,0,0,0,3.29,3.28H472.87a3.288,3.288,0,0,0,3.29-3.28v-11.97A3.278,3.278,0,0,0,472.918,2781.21Zm-9.383-8.54a3.329,3.329,0,0,1,6.658,0v8.53h-6.658v-8.53Zm9.9,23.78a0.563,0.563,0,0,1-.566.56H460.858a0.563,0.563,0,0,1-.566-0.56v-11.97a0.563,0.563,0,0,1,.566-0.56H472.87a0.563,0.563,0,0,1,.566.56v11.97Zm44.583-26.73H488.842a3.413,3.413,0,0,0-3.413,3.4v4.04a3.407,3.407,0,0,0,3.413,3.4h29.177a3.407,3.407,0,0,0,3.413-3.4v-4.04A3.413,3.413,0,0,0,518.019,2769.72Zm0.689,7.44h0a0.691,0.691,0,0,1-.689.69H488.842a0.69,0.69,0,0,1-.688-0.69v-4.04a0.688,0.688,0,0,1,.688-0.68h29.177a0.688,0.688,0,0,1,.689.68v4.04Zm-0.689,6.01H488.842a3.407,3.407,0,0,0-3.413,3.4v4.04a3.413,3.413,0,0,0,3.413,3.4h29.177a3.413,3.413,0,0,0,3.413-3.4v-4.04A3.407,3.407,0,0,0,518.019,2783.17Zm0.689,7.44a0.682,0.682,0,0,1-.689.68H488.842a0.682,0.682,0,0,1-.688-0.68v-4.04a0.69,0.69,0,0,1,.688-0.69h29.177a0.691,0.691,0,0,1,.689.69v4.04ZM487.3,2763.14a1.354,1.354,0,0,0-1.363,1.35v0.24a1.363,1.363,0,0,0,2.725,0v-0.24A1.353,1.353,0,0,0,487.3,2763.14Zm5.437,0a1.353,1.353,0,0,0-1.362,1.35v0.24a1.363,1.363,0,0,0,2.725,0v-0.24A1.354,1.354,0,0,0,492.739,2763.14Zm5.438,0a1.353,1.353,0,0,0-1.362,1.35v0.24a1.363,1.363,0,0,0,2.725,0v-0.24A1.354,1.354,0,0,0,498.177,2763.14Zm5.254,33.67h-16.64a1.36,1.36,0,1,0,0,2.72h16.64A1.36,1.36,0,1,0,503.431,2796.81Zm-12.154,4.4h-4.485a1.36,1.36,0,1,0,0,2.72h4.485A1.36,1.36,0,1,0,491.277,2801.21Z" transform="translate(-443 -2737)"/>
</svg>
