<svg xmlns="http://www.w3.org/2000/svg" xmlns:xlink="http://www.w3.org/1999/xlink" width="100" height="102" viewBox="0 0 100 102">
  <metadata><?xpacket begin="﻿" id="W5M0MpCehiHzreSzNTczkc9d"?>
<x:xmpmeta xmlns:x="adobe:ns:meta/" x:xmptk="Adobe XMP Core 5.6-c142 79.160924, 2017/07/13-01:06:39        ">
   <rdf:RDF xmlns:rdf="http://www.w3.org/1999/02/22-rdf-syntax-ns#">
      <rdf:Description rdf:about=""/>
   </rdf:RDF>
</x:xmpmeta>
                                                                                                    
                                                                                                    
                                                                                                    
                                                                                                    
                                                                                                    
                                                                                                    
                                                                                                    
                                                                                                    
                                                                                                    
                                                                                                    
                                                                                                    
                                                                                                    
                                                                                                    
                                                                                                    
                                                                                                    
                                                                                                    
                                                                                                    
                                                                                                    
                                                                                                    
                                                                                                    
                           
<?xpacket end="w"?></metadata>
<defs>
    <style>
      .cls-1 {
        fill-rule: evenodd;
        fill: url(#linear-gradient);
      }
    </style>
    <linearGradient id="linear-gradient" x1="1198" y1="3042" x2="1198" y2="2940" gradientUnits="userSpaceOnUse">
      <stop offset="0" stop-color="#253961"/>
      <stop offset="1" stop-color="#1da2c9"/>
    </linearGradient>
  </defs>
  <path class="cls-1" d="M1176.15,3027.04l-6.03-3.02a0.1,0.1,0,0,1-.06-0.09v-3.05a11.025,11.025,0,0,0,4.67-7.58,12.7,12.7,0,0,0-3.35-16.46,6.42,6.42,0,0,0,.27-1.85c0-3.9-3.52-7.08-7.85-7.08s-7.85,3.18-7.85,7.08a6.42,6.42,0,0,0,.27,1.85,12.677,12.677,0,0,0-3.34,16.46,11.047,11.047,0,0,0,4.66,7.58v3.05a0.105,0.105,0,0,1-.05.09l-6.03,3.02a6.264,6.264,0,0,0-3.46,5.62v7.85a1.49,1.49,0,1,0,2.98,0v-7.85a3.267,3.267,0,0,1,1.81-2.94l4.97-2.5,4.55,4.34v8.95a1.49,1.49,0,1,0,2.98,0v-8.95l4.55-4.34,4.97,2.5a3.276,3.276,0,0,1,1.82,2.94v7.85a1.49,1.49,0,1,0,2.98,0v-7.85A6.264,6.264,0,0,0,1176.15,3027.04Zm-12.35-36.14c2.69,0,4.88,1.83,4.88,4.09a2.458,2.458,0,0,1-.02.28,12.66,12.66,0,0,0-9.72,0c0-.09-0.01-0.18-0.01-0.28C1158.93,2992.73,1161.12,2990.9,1163.8,2990.9Zm0,37.96-3.64-3.48a3.083,3.083,0,0,0,.36-1.45v-1.59a11.041,11.041,0,0,0,6.57,0v1.59a2.969,2.969,0,0,0,.36,1.45Zm0-9.01a8.042,8.042,0,0,1-8-7.21,1.689,1.689,0,0,0-.21-0.62,9.648,9.648,0,1,1,17.37-2.03c-4.23-4.31-11.66-6-12.02-6.08a1.477,1.477,0,0,0-1.28.29,1.437,1.437,0,0,0-.53,1.16,3.626,3.626,0,0,1-1.15,2.15,1.5,1.5,0,0,0,0,2.11,1.467,1.467,0,0,0,2.1,0,7.211,7.211,0,0,0,1.62-2.41c2.5,0.75,7.7,2.63,10.03,5.94A8.043,8.043,0,0,1,1163.8,3019.85Zm-7.95,14.75a1.494,1.494,0,0,0-1.49,1.49v4.42a1.49,1.49,0,1,0,2.98,0v-4.42A1.494,1.494,0,0,0,1155.85,3034.6Zm15.91,0a1.487,1.487,0,0,0-1.49,1.49v4.42a1.485,1.485,0,1,0,2.97,0v-4.42A1.485,1.485,0,0,0,1171.76,3034.6Zm43.74-14.52-16.81-10.74V2992.6a1.485,1.485,0,1,0-2.97,0v16.74l-16.81,10.74a1.493,1.493,0,1,0,1.6,2.52l16.69-10.67,16.7,10.67a1.483,1.483,0,0,0,2.06-.46A1.5,1.5,0,0,0,1215.5,3020.08Zm-5.95-47.33-3.85-1.93a25.871,25.871,0,0,0,5.07-1.69,3.084,3.084,0,0,0,1.59-3.91,57.951,57.951,0,0,1-2.54-12.65c-0.5-7.17-5.93-12.57-12.62-12.57s-12.11,5.4-12.61,12.57a58.067,58.067,0,0,1-2.54,12.65,3.084,3.084,0,0,0,1.59,3.91,25.969,25.969,0,0,0,5.06,1.69l-3.84,1.93a6.253,6.253,0,0,0-3.46,5.62v7.84a1.49,1.49,0,1,0,2.98,0v-7.84a3.271,3.271,0,0,1,1.81-2.95l4.97-2.5,1.73,1.65a6.246,6.246,0,0,0,8.63,0l1.73-1.65,4.97,2.5a3.271,3.271,0,0,1,1.81,2.95v7.84a1.49,1.49,0,1,0,2.98,0v-7.84A6.253,6.253,0,0,0,1209.55,2972.75Zm-18.61-4.53a24.611,24.611,0,0,1-6.06-1.8,0.123,0.123,0,0,1-.04-0.16,44.205,44.205,0,0,0,1.65-6.18,11.13,11.13,0,0,0,4.45,6.5v1.64Zm8.53,4.19a3.28,3.28,0,0,1-4.53,0l-1.38-1.32a3.154,3.154,0,0,0,.36-1.46v-1.59a11.041,11.041,0,0,0,6.57,0v1.59a3.154,3.154,0,0,0,.36,1.46Zm-2.27-6.86a8.079,8.079,0,0,1-8.05-8.09,1.494,1.494,0,0,0-1.49-1.49,1.51,1.51,0,0,0-.48.08c0.19-1.26.31-2.39,0.37-3.27a11.142,11.142,0,0,1,3.01-6.97,9.239,9.239,0,0,1,13.29,0,11.132,11.132,0,0,1,3,6.97c0.07,0.94.21,2.18,0.42,3.54a13.327,13.327,0,0,0-7.63-5.84,18.779,18.779,0,0,0-5.66-.9,1.491,1.491,0,0,0-1.03.46l-2.68,2.79a1.5,1.5,0,0,0,.04,2.12,1.485,1.485,0,0,0,2.1-.04l2.23-2.33a16.393,16.393,0,0,1,4.17.77,10.005,10.005,0,0,1,6.35,5.37A8.04,8.04,0,0,1,1197.2,2965.55Zm6.26,1.04a11.016,11.016,0,0,0,4.46-6.51,44.205,44.205,0,0,0,1.65,6.18,0.123,0.123,0,0,1-.04.16,24.577,24.577,0,0,1-6.07,1.8v-1.63Zm-14.21,13.71a1.5,1.5,0,0,0-1.49,1.5v4.41a1.49,1.49,0,1,0,2.98,0v-4.41A1.5,1.5,0,0,0,1189.25,2980.3Zm15.91,0a1.5,1.5,0,0,0-1.49,1.5v4.41a1.49,1.49,0,1,0,2.98,0v-4.41A1.5,1.5,0,0,0,1205.16,2980.3Zm30.88,23.74c-3.45-1.74-9.93-1.76-10.21-1.76a1.5,1.5,0,0,0,0,2.99c1.68,0,6.54.26,8.88,1.44a1.467,1.467,0,0,0,.67.16A1.494,1.494,0,0,0,1236.04,3004.04Zm7.42,21.26-5.37-1.54a1.7,1.7,0,0,1-1.22-1.63v-1.25a12.081,12.081,0,0,0,1.42-1.17,11.024,11.024,0,0,0,3.35-7.95v-2.84l0.59-1.19a9.608,9.608,0,0,0,1-4.24v-7.7a1.494,1.494,0,0,0-1.49-1.49h-14.32a9.472,9.472,0,0,0-9.44,9.48v0.08a8,8,0,0,0,.83,3.53l0.76,1.53v2.44a11.668,11.668,0,0,0,4.78,9.42v1.35a1.713,1.713,0,0,1-1.23,1.63l-5.37,1.54a6.312,6.312,0,0,0-4.54,6.04v9.17a1.49,1.49,0,1,0,2.98,0v-9.17a3.321,3.321,0,0,1,2.38-3.17l5.37-1.54a4.546,4.546,0,0,0,1.28-.6l0.96,0.97a6.265,6.265,0,0,0,8.85,0l0.96-.96a4.736,4.736,0,0,0,1.29.59l5.36,1.54a3.321,3.321,0,0,1,2.38,3.17v9.17a1.49,1.49,0,1,0,2.98,0v-9.17A6.312,6.312,0,0,0,1243.46,3025.3Zm-10.53-.42a3.277,3.277,0,0,1-4.65,0l-1.22-1.22a4.75,4.75,0,0,0,.26-1.35,10.258,10.258,0,0,0,2.95.52c0.11,0,.23.01,0.34,0.01a11.3,11.3,0,0,0,3.29-.5,4.538,4.538,0,0,0,.25,1.32Zm-2.57-5.04a8.34,8.34,0,0,1-7.81-8.48v-2.79a1.409,1.409,0,0,0-.16-0.67l-0.91-1.85a4.869,4.869,0,0,1-.52-2.19v-0.08a6.493,6.493,0,0,1,6.47-6.5h12.82v6.21a6.5,6.5,0,0,1-.68,2.9l-0.75,1.51a1.537,1.537,0,0,0-.16.67v3.19A8.062,8.062,0,0,1,1230.36,3019.84Zm-9.3,12.78a1.5,1.5,0,0,0-1.49,1.5v6.39a1.49,1.49,0,1,0,2.98,0v-6.39A1.5,1.5,0,0,0,1221.06,3032.62Zm19.09,0a1.5,1.5,0,0,0-1.49,1.5v6.39a1.49,1.49,0,1,0,2.98,0v-6.39A1.5,1.5,0,0,0,1240.15,3032.62Z" transform="translate(-1148 -2940)"/>
</svg>
