<svg xmlns="http://www.w3.org/2000/svg" xmlns:xlink="http://www.w3.org/1999/xlink" width="94" height="94" viewBox="0 0 94 94">
  <metadata><?xpacket begin="﻿" id="W5M0MpCehiHzreSzNTczkc9d"?>
<x:xmpmeta xmlns:x="adobe:ns:meta/" x:xmptk="Adobe XMP Core 5.6-c142 79.160924, 2017/07/13-01:06:39        ">
   <rdf:RDF xmlns:rdf="http://www.w3.org/1999/02/22-rdf-syntax-ns#">
      <rdf:Description rdf:about=""/>
   </rdf:RDF>
</x:xmpmeta>
                                                                                                    
                                                                                                    
                                                                                                    
                                                                                                    
                                                                                                    
                                                                                                    
                                                                                                    
                                                                                                    
                                                                                                    
                                                                                                    
                                                                                                    
                                                                                                    
                                                                                                    
                                                                                                    
                                                                                                    
                                                                                                    
                                                                                                    
                                                                                                    
                                                                                                    
                                                                                                    
                           
<?xpacket end="w"?></metadata>
<defs>
    <style>
      .cls-1 {
        fill-rule: evenodd;
        fill: url(#linear-gradient);
      }
    </style>
    <linearGradient id="linear-gradient" x1="1433" y1="2824" x2="1433" y2="2730" gradientUnits="userSpaceOnUse">
      <stop offset="0" stop-color="#253961"/>
      <stop offset="1" stop-color="#1da2c9"/>
    </linearGradient>
  </defs>
  <path class="cls-1" d="M1475.59,2774.06v-42.59a1.466,1.466,0,0,0-2.01-1.37l-14.69,5.88a1.455,1.455,0,0,0-.92,1.36,1.478,1.478,0,0,0,.92,1.37l13.77,5.5v29.85h-1.47a1.485,1.485,0,0,0-1.04.43l-26.13,26.14-5.57-5.58a1.479,1.479,0,0,0-2.08,0l-17.32,17.33-10.71-10.72a1.479,1.479,0,0,0-2.08,0l-19.83,19.83a1.5,1.5,0,0,0-.43,1.04V2824h2.94v-0.86l18.36-18.36,10.71,10.71a1.479,1.479,0,0,0,2.08,0l17.32-17.32,5.57,5.57a1.467,1.467,0,0,0,2.07,0L1471.8,2777h8.2v-2.94h-4.41Zm-12.2-36.72,9.27-3.7v7.41Zm-74.85,56.82c3.56-3.76,10.95-1.39,15.37.01a17.149,17.149,0,0,0,5.26.88,12.439,12.439,0,0,0,4.74-.93v9.32a1.472,1.472,0,0,0,1.47,1.47h7.34a1.472,1.472,0,0,0,1.47-1.47v-14.28a4.528,4.528,0,0,1,1.84-1.31c0.29-.14.59-0.28,0.9-0.41a12.708,12.708,0,0,0,2.52-1.37,5.592,5.592,0,0,0,1.96-3.2h3.06v8.82a1.472,1.472,0,0,0,1.47,1.47h7.34a1.472,1.472,0,0,0,1.47-1.47v-11.75a7.353,7.353,0,0,0-7.34-7.35h-8.82v-4.4h7.35a7.353,7.353,0,0,0,7.34-7.35v-13.22a1.464,1.464,0,0,0-1.47-1.46h-5.87a1.464,1.464,0,0,0-1.47,1.46v11.75h-7.18a8.8,8.8,0,1,0-15.43-.32,25,25,0,0,0-12.99,9.62,42.868,42.868,0,0,0-3.88,7.01c-0.3.64-.61,1.27-0.91,1.89-0.69,1.4-1.34,2.93-1.97,4.4-1.57,3.7-3.2,7.52-5.7,10.17l-0.01.01A1.468,1.468,0,0,0,1388.54,2794.16Zm25.37-19.01-1.71-1.71,1.71-1.71v3.42Zm13.79,8.56a10.71,10.71,0,0,1-1.97,1.05c-0.33.15-.67,0.29-0.99,0.45-0.18.09-.37,0.19-0.55,0.29v-2.63h4.13A2.245,2.245,0,0,1,1427.7,2783.71Zm8.24-21.4a1.472,1.472,0,0,0,1.47-1.47v-11.75h2.93v11.75a4.409,4.409,0,0,1-4.4,4.41h-8.81a1.466,1.466,0,0,0-1.47,1.47v7.34a1.466,1.466,0,0,0,1.47,1.47h10.28a4.409,4.409,0,0,1,4.4,4.41v10.28h-4.4v-8.81a1.466,1.466,0,0,0-1.47-1.47h-13.22a1.466,1.466,0,0,0-1.47,1.47v20.56h-4.41v-33.78a1.462,1.462,0,0,0-2.5-1.04l-5.26,5.25a1.46,1.46,0,0,0-.43,1.04,1.443,1.443,0,0,0,.43,1.04l4.1,4.1-2.33,2.33-4.35-4.35a4.406,4.406,0,0,1,0-6.23l8.13-8.14a8.774,8.774,0,0,0,5.04,1.59c0.04,0,.07-0.01.11-0.01v8.82h2.94v-9.37a8.527,8.527,0,0,0,1.81-.91h11.41Zm-16.27-13.22a5.875,5.875,0,1,1-5.88,5.88A5.881,5.881,0,0,1,1419.67,2749.09Zm-24.85,34.03c0.64-1.5,1.24-2.93,1.89-4.25,0.32-.64.62-1.28,0.93-1.93a40.385,40.385,0,0,1,3.6-6.54,24.037,24.037,0,0,1,8.37-7.34l-5.19,5.19a7.363,7.363,0,0,0,0,10.39l5.39,5.39a1.479,1.479,0,0,0,2.08,0l2.02-2.02v8.84c-3.09,1.81-6.62,1.32-9.1.53-3.46-1.11-8.5-2.71-12.89-2.02C1393.01,2787.36,1393.92,2785.22,1394.82,2783.12Z" transform="translate(-1386 -2730)"/>
</svg>
