<svg xmlns="http://www.w3.org/2000/svg" xmlns:xlink="http://www.w3.org/1999/xlink" width="85" height="85" viewBox="0 0 85 85">
  <metadata><?xpacket begin="﻿" id="W5M0MpCehiHzreSzNTczkc9d"?>
<x:xmpmeta xmlns:x="adobe:ns:meta/" x:xmptk="Adobe XMP Core 5.6-c142 79.160924, 2017/07/13-01:06:39        ">
   <rdf:RDF xmlns:rdf="http://www.w3.org/1999/02/22-rdf-syntax-ns#">
      <rdf:Description rdf:about=""/>
   </rdf:RDF>
</x:xmpmeta>
                                                                                                    
                                                                                                    
                                                                                                    
                                                                                                    
                                                                                                    
                                                                                                    
                                                                                                    
                                                                                                    
                                                                                                    
                                                                                                    
                                                                                                    
                                                                                                    
                                                                                                    
                                                                                                    
                                                                                                    
                                                                                                    
                                                                                                    
                                                                                                    
                                                                                                    
                                                                                                    
                           
<?xpacket end="w"?></metadata>
<defs>
    <style>
      .cls-1 {
        fill-rule: evenodd;
        fill: url(#linear-gradient);
      }
    </style>
    <linearGradient id="linear-gradient" x1="1138.037" y1="7051" x2="1088.963" y2="7136" gradientUnits="userSpaceOnUse">
      <stop offset="0" stop-color="#1da8cf"/>
      <stop offset="1" stop-color="#20356d"/>
    </linearGradient>
  </defs>
  <path id="Forma_1" data-name="Forma 1" class="cls-1" d="M1113.5,7081.16a12.34,12.34,0,1,0,12.33,12.34A12.351,12.351,0,0,0,1113.5,7081.16Zm0,13.71a1.37,1.37,0,1,1,1.37-1.37A1.366,1.366,0,0,1,1113.5,7094.87Zm1.37,8.12v-5.63a4.11,4.11,0,1,0-2.74,0v5.63A9.59,9.59,0,1,1,1114.87,7102.99Zm14.89-2.25c0.12-.28.24-0.57,0.35-0.85l6.67-1.12v-10.54l-6.67-1.12c-0.21-.53-0.44-1.07-0.71-1.61l-2.45,1.23a15.042,15.042,0,0,1,.84,2.03l0.26,0.79,5.99,1v5.9l-5.99,1-0.25.79a14.492,14.492,0,0,1-.85,2.02l-0.37.74,3.53,4.96-4.17,4.17-4.94-3.54-0.74.37a15.128,15.128,0,0,1-2.03.85l-0.78.26-1,5.99h-5.9l-1-5.99-0.78-.26a15.128,15.128,0,0,1-2.03-.85l-0.74-.37-4.94,3.54-4.99-5-1.94,1.94,6.63,6.64,5.51-3.94c0.28,0.13.57,0.25,0.85,0.36l1.11,6.68h10.54l1.11-6.68c0.28-.11.57-0.23,0.85-0.36l5.51,3.94,7.45-7.46Zm-32.16.76,2.45-1.24a14.492,14.492,0,0,1-.85-2.02l-0.25-.79-5.99-1v-5.9l5.99-1,0.25-.79a15.128,15.128,0,0,1,.85-2.03l0.37-.73-3.53-4.96,4.17-4.17,4.94,3.54,0.74-.37a14.6,14.6,0,0,1,2.03-.85l0.78-.26,1-5.99h5.9l1,5.99,0.78,0.26a15.128,15.128,0,0,1,2.03.85l0.74,0.37,4.94-3.54,4.99,5,1.94-1.94-6.63-6.64-5.51,3.94c-0.28-.13-0.57-0.25-0.85-0.36l-1.11-6.68h-10.54l-1.11,6.68c-0.28.11-.57,0.23-0.85,0.36l-5.51-3.94-7.45,7.46,3.93,5.51c-0.12.28-.24,0.57-0.35,0.85l-6.67,1.12v10.54l6.67,1.12A17.2,17.2,0,0,0,1097.6,7101.5Zm14.53-25.82h2.74v2.74h-2.74v-2.74Zm-12.19,6.19,1.94-1.94,1.94,1.94-1.94,1.94Zm-4.25,10.26h2.74v2.74h-2.74v-2.74Zm8.13,13-1.94,1.94-1.94-1.94,1.94-1.94Zm8.31,3.45h2.74v2.74h-2.74v-2.74Zm14.93-3.45-1.94,1.94-1.94-1.94,1.94-1.94Zm1.51-13h2.73v2.74h-2.73v-2.74Zm-5.39-10.26,1.94-1.94,1.94,1.94-1.94,1.94Zm32.74,11.3c-0.07-.29-7.51-28.46-42.42-28.46s-42.35,28.17-42.42,28.46l-0.08.33,0.08,0.33c0.07,0.29,7.51,28.46,42.42,28.46s42.35-28.17,42.42-28.46l0.08-.33Zm-82.09.34a37.352,37.352,0,0,1,22.81-23.28,28.711,28.711,0,0,0,.14,46.65A36.528,36.528,0,0,1,1073.83,7093.51Zm13.65-.01a26.02,26.02,0,1,1,26.02,26.05A26.065,26.065,0,0,1,1087.48,7093.5Zm42.88,23.27a28.711,28.711,0,0,0-.14-46.65,36.556,36.556,0,0,1,22.95,23.37A37.352,37.352,0,0,1,1130.36,7116.77Zm-18.23,12.38a1.372,1.372,0,0,1-1.37,1.37h-22.17a4.11,4.11,0,1,0,0,2.74h22.17a4.116,4.116,0,0,0,4.11-4.11v-4.12h-2.74v4.12h0Zm-27.39,4.11a1.37,1.37,0,1,1,1.37-1.37A1.372,1.372,0,0,1,1084.74,7133.26Zm4.11-13.71v-1.37h-2.74v1.37a1.379,1.379,0,0,1-1.37,1.37h-5.73a4.11,4.11,0,1,0,0,2.74h5.73A4.116,4.116,0,0,0,1088.85,7119.55Zm-13.7,4.11a1.37,1.37,0,1,1,1.37-1.37A1.366,1.366,0,0,1,1075.15,7123.66Zm39.72-65.81a1.372,1.372,0,0,1,1.37-1.37h22.16a4.11,4.11,0,1,0,0-2.74h-22.16a4.116,4.116,0,0,0-4.11,4.11v4.12h2.74v-4.12Zm27.39-4.11a1.37,1.37,0,1,1-1.37,1.37A1.372,1.372,0,0,1,1142.26,7053.74Zm-4.11,13.71v1.37h2.74v-1.37a1.379,1.379,0,0,1,1.37-1.37h5.73a4.11,4.11,0,1,0,0-2.74h-5.73A4.116,4.116,0,0,0,1138.15,7067.45Zm13.7-4.11a1.37,1.37,0,1,1-1.37,1.37A1.372,1.372,0,0,1,1151.85,7063.34Z" transform="translate(-1071 -7051)"/>
</svg>
