<svg xmlns="http://www.w3.org/2000/svg" xmlns:xlink="http://www.w3.org/1999/xlink" width="81" height="81" viewBox="0 0 81 81">
  <metadata><?xpacket begin="﻿" id="W5M0MpCehiHzreSzNTczkc9d"?>
<x:xmpmeta xmlns:x="adobe:ns:meta/" x:xmptk="Adobe XMP Core 5.6-c142 79.160924, 2017/07/13-01:06:39        ">
   <rdf:RDF xmlns:rdf="http://www.w3.org/1999/02/22-rdf-syntax-ns#">
      <rdf:Description rdf:about=""/>
   </rdf:RDF>
</x:xmpmeta>
                                                                                                    
                                                                                                    
                                                                                                    
                                                                                                    
                                                                                                    
                                                                                                    
                                                                                                    
                                                                                                    
                                                                                                    
                                                                                                    
                                                                                                    
                                                                                                    
                                                                                                    
                                                                                                    
                                                                                                    
                                                                                                    
                                                                                                    
                                                                                                    
                                                                                                    
                                                                                                    
                           
<?xpacket end="w"?></metadata>
<defs>
    <style>
      .cls-1 {
        fill-rule: evenodd;
        fill: url(#linear-gradient);
      }
    </style>
    <linearGradient id="linear-gradient" x1="535.883" y1="7055" x2="489.117" y2="7136" gradientUnits="userSpaceOnUse">
      <stop offset="0" stop-color="#1da8cf"/>
      <stop offset="1" stop-color="#20356d"/>
    </linearGradient>
  </defs>
  <path class="cls-1" d="M524.65,7071.2a12.15,12.15,0,1,0-18.9,10.09v2.13a366.635,366.635,0,0,1-1.35,7.35,3.377,3.377,0,0,0,3.375,3.38h9.45a5.749,5.749,0,0,0,2.025-10.73v-2.13A12.182,12.182,0,0,0,524.65,7071.2Zm-7.425,20.25h-9.45a0.675,0.675,0,1,1,0-1.35h9.45A0.675,0.675,0,1,1,517.225,7091.45Zm1.35-4.05h-12.15a0.675,0.675,0,1,1,0-1.35h12.15A0.675,0.675,0,1,1,518.575,7087.4Zm-7.425-16.2a1.35,1.35,0,1,1,1.35,1.35A1.348,1.348,0,0,1,511.15,7071.2Zm6.074,8.18-0.674.39v3.58h-2.7V7075a4.05,4.05,0,1,0-2.7,0v8.35h-2.7v-3.58l-0.674-.39A9.45,9.45,0,1,1,517.224,7079.38Zm6.656,38.93a4.035,4.035,0,0,0-3.767-2.56H519.25v-15.53a4.725,4.725,0,0,0-9.45,0v6.42a3.951,3.951,0,0,0-1.526-.34h-1.281a3.948,3.948,0,0,0-3.943,3.94v0.11h-1.457a3.948,3.948,0,0,0-3.943,3.94v0.11h-0.107a3.948,3.948,0,0,0-3.943,3.94v3.09a13.417,13.417,0,0,0,1.112,5.37l2.047,4.73a10.689,10.689,0,0,1,.891,4.29V7136h2.7v-0.18a13.452,13.452,0,0,0-1.112-5.37l-2.047-4.72a10.7,10.7,0,0,1-.73-2.51l5.076,5.08a4.063,4.063,0,0,0,5.726,0l0.233-.24a4.007,4.007,0,0,0,1.128-2.27c0.054,0,.107.01,0.161,0.01a3.92,3.92,0,0,0,2.1-.61l0.082-.05a4.71,4.71,0,0,0,.532-0.43,5.222,5.222,0,0,0,2.191,1.17l1.81,0.45,1.117,3.35,2.559-.86-1.583-4.75-3.248-.82a2.436,2.436,0,0,1,.591-4.8h5.172a1.359,1.359,0,0,1,1.256.85l1.651,4.19a4.1,4.1,0,0,1,.28,1.49v0.29a4.1,4.1,0,0,1-.426,1.82l-1.561,3.12a6.751,6.751,0,0,0-.713,3.01V7136h2.7v-2.78a4.08,4.08,0,0,1,.427-1.81l1.561-3.12a6.774,6.774,0,0,0,.712-3.02v-0.29a6.8,6.8,0,0,0-.469-2.48Zm-18.294,7.84-0.232.24a1.362,1.362,0,0,1-1.908,0l-6.781-6.78a1.246,1.246,0,0,1-.365-0.88v-0.39a1.246,1.246,0,0,1,1.243-1.24h0.382a1.248,1.248,0,0,1,.879.36l6.781,6.79A1.338,1.338,0,0,1,505.586,7126.15Zm4.384-3.96a1.182,1.182,0,0,1-.475.69l-0.027.02a1.253,1.253,0,0,1-1.568-.16l-0.406-.4-6.781-6.78a1.256,1.256,0,0,1-.363-0.88v-0.39a1.246,1.246,0,0,1,1.243-1.24h1.51a1.242,1.242,0,0,1,.991.49l3.132,4.18,2.551,3.39a0.068,0.068,0,0,0,.031.04h0l0.014,0.02a5.043,5.043,0,0,0,.156,1A0.1,0.1,0,0,1,509.97,7122.19Zm2.529-6.05c0,0.38-1.184.96-1.74,2.31h0l-2.9-4.13-1.6-2.26-0.258-.44a1.338,1.338,0,0,1-.25-0.79v-0.59a1.246,1.246,0,0,1,1.244-1.24h1.281a0.92,0.92,0,0,1,.849.64l3.375,6.5h0Zm4.051-.39h-0.706l-3.344-6.02v-9.51a2.025,2.025,0,0,1,4.05,0v15.53Zm-5.4-60.75h2.7v2.7h-2.7V7055Zm-5.581,1.5,1.35,2.33-2.338,1.35-1.35-2.33Zm-6.425,5.43,2.339,1.35-1.35,2.34-2.338-1.35Zm-2.844,7.92H499v2.7h-2.7v-2.7Zm2.844,10.62-1.35-2.34,2.339-1.35,1.35,2.34Zm26.709,0-2.339-1.35,1.35-2.34,2.339,1.35ZM526,7069.85h2.7v2.7H526v-2.7Zm-0.145-7.92,1.35,2.34-2.338,1.35-1.35-2.34Zm-6.426-5.44,2.339,1.35-1.35,2.34-2.339-1.35ZM550.3,7071.2v-2.7h-2.7v2.7h-2.7v2.7h2.7v2.7h2.7v-2.7H553v-2.7h-2.7Zm-13.5-8.1h2.7v-2.7h2.7v-2.7h-2.7V7055h-2.7v2.7h-2.7v2.7h2.7v2.7Zm-59.4,13.5h-2.7v2.7H472v2.7h2.7v2.7h2.7V7082h2.7v-2.7h-2.7v-2.7Zm12.15-10.8h-2.7v-2.7h-2.7v2.7h-2.7v2.7h2.7v2.7h2.7v-2.7h2.7v-2.7Zm4.05,32.4v-2.7h2.7v-2.7h-2.7v-2.7h-2.7v2.7h-2.7v2.7h2.7v2.7h2.7Zm47.25-14.85h-2.7v2.7h-2.7v2.7h2.7v2.7h2.7v-2.7h2.7v-2.7h-2.7v-2.7Z" transform="translate(-472 -7055)"/>
</svg>
