<svg xmlns="http://www.w3.org/2000/svg" xmlns:xlink="http://www.w3.org/1999/xlink" width="86" height="86" viewBox="0 0 86 86">
  <metadata><?xpacket begin="﻿" id="W5M0MpCehiHzreSzNTczkc9d"?>
<x:xmpmeta xmlns:x="adobe:ns:meta/" x:xmptk="Adobe XMP Core 5.6-c142 79.160924, 2017/07/13-01:06:39        ">
   <rdf:RDF xmlns:rdf="http://www.w3.org/1999/02/22-rdf-syntax-ns#">
      <rdf:Description rdf:about=""/>
   </rdf:RDF>
</x:xmpmeta>
                                                                                                    
                                                                                                    
                                                                                                    
                                                                                                    
                                                                                                    
                                                                                                    
                                                                                                    
                                                                                                    
                                                                                                    
                                                                                                    
                                                                                                    
                                                                                                    
                                                                                                    
                                                                                                    
                                                                                                    
                                                                                                    
                                                                                                    
                                                                                                    
                                                                                                    
                                                                                                    
                           
<?xpacket end="w"?></metadata>
<defs>
    <style>
      .cls-1 {
        fill-rule: evenodd;
        fill: url(#linear-gradient);
      }
    </style>
    <linearGradient id="linear-gradient" x1="1440.826" y1="7051" x2="1391.174" y2="7137" gradientUnits="userSpaceOnUse">
      <stop offset="0" stop-color="#1da8cf"/>
      <stop offset="1" stop-color="#20356d"/>
    </linearGradient>
  </defs>
  <path id="Forma_1" data-name="Forma 1" class="cls-1" d="M1440.97,7084.29a24.872,24.872,0,0,0-4.41-14.17l-2.28,1.58a22.172,22.172,0,0,1-2.25,27.91,18.713,18.713,0,0,0-3,4.15,4.886,4.886,0,0,0-.55-0.05h-5.54v2.77h5.54a1.39,1.39,0,0,1,0,2.78h-2.77v2.77h2.77a1.39,1.39,0,0,1,0,2.78h-5.54v2.77h2.65a11.116,11.116,0,0,1-8.2,5.44v-5.44h2.77v-2.77h-5.55v-2.78h8.33v-2.77h-2.78v-5.55h-2.77v-5.62a13.91,13.91,0,0,0,8.95-4.55l-2.07-1.85a11.1,11.1,0,1,1,0-14.8l2.07-1.85a13.887,13.887,0,0,0-10.34-4.62,14.771,14.771,0,0,0-1.9.14l-0.6-2.73a16.693,16.693,0,0,1,6.34.26l0.64-2.7a19.65,19.65,0,0,0-8.96,0l-1.33.31,1.21,5.52a13.861,13.861,0,0,0,3.21,26.87v5.62h-2.77v2.77h5.55v2.78h-9.71v2.77h4.16v5.55h2.77v5.46a11.053,11.053,0,0,1-3.54-1.06l-1.24,2.48a13.709,13.709,0,0,0,6.17,1.44,13.883,13.883,0,0,0,12.72-8.34,4.129,4.129,0,0,0,2.84-6.92,4.088,4.088,0,0,0,1.09-2.77,4.136,4.136,0,0,0-1.15-2.85,15.992,15.992,0,0,1,2.53-3.49A24.813,24.813,0,0,0,1440.97,7084.29Zm-14.75-16.5,1.39-2.41a22.482,22.482,0,0,1,4.05,3.19l1.96-1.97a24.958,24.958,0,0,0-35.41,35.18,13.316,13.316,0,0,1,2.31,3.22,4.139,4.139,0,0,0-1.17,2.87,4.088,4.088,0,0,0,1.09,2.77,4.129,4.129,0,0,0,2.85,6.92,13.9,13.9,0,0,0,2.37,3.72l2.07-1.85a10.88,10.88,0,0,1-1.34-1.85h2.67v-2.77h-5.54a1.39,1.39,0,1,1,0-2.78h1.38v-2.77h-1.38a1.39,1.39,0,1,1,0-2.78h5.54v-2.77h-5.54a4.363,4.363,0,0,0-.52.05,16.256,16.256,0,0,0-2.81-3.93,22.036,22.036,0,0,1-6.31-14.15h2.75a19.355,19.355,0,0,0,10.41,15.83l1.28-2.46a16.629,16.629,0,0,1,0-29.52l-1.28-2.46a19.355,19.355,0,0,0-10.41,15.83h-2.75c0.04-.53.05-1.05,0.12-1.59a22.164,22.164,0,0,1,31.15-17.22l-2.75,4.77,1.28,0.67a16.6,16.6,0,0,1,8.27,19.51l-2.51-1.29a13.9,13.9,0,0,0,.43-3.46,13.709,13.709,0,0,0-1.44-6.17l-2.49,1.24a11.07,11.07,0,0,1,1.07,3.54h-2.81a8.32,8.32,0,1,0,0,2.78h2.8a11.386,11.386,0,0,1-.53,2.31l-0.41,1.14,4.87,2.5a16.608,16.608,0,0,1-7.25,7.42l1.28,2.46A19.4,19.4,0,0,0,1426.22,7067.79ZM1416,7089.84a5.55,5.55,0,1,1,5.55-5.55A5.557,5.557,0,0,1,1416,7089.84Zm-19.62,34.69,0.4,2.75,6.06-.87-5.59,7.82H1373V7137h25.68l6.22-8.71v5.94h2.78v-11.31Zm51.33-70.74,0.39,2.74,5.96-.85-8.22,10.58h-9.03v2.77h10.38l9.04-11.61v6.06H1459v-11.31Zm1.58,30.5h2.77v2.77h-2.77v-2.77Zm0,5.55h2.77v2.77h-2.77v-2.77Zm2.77-2.78h2.78v2.78h-2.78v-2.78Zm-5.54,0h2.77v2.78h-2.77v-2.78ZM1393.81,7051h2.77v2.77h-2.77V7051Zm0,5.55h2.77v2.77h-2.77v-2.77Zm2.77-2.78h2.77v2.78h-2.77v-2.78Zm-5.55,0h2.78v2.78h-2.78v-2.78Zm51.32,52.71h2.78v2.78h-2.78v-2.78Zm0,5.55h2.78v2.78h-2.78v-2.78Zm2.78-2.77h2.77v2.77h-2.77v-2.77Zm-5.55,0h2.77v2.77h-2.77v-2.77Zm-56.87-16.65h2.77v2.78h-2.77v-2.78Zm0,5.55h2.77v2.78h-2.77v-2.78Zm2.77-2.77h2.78v2.77h-2.78v-2.77Zm-5.54,0h2.77v2.77h-2.77v-2.77Zm-4.17-23.58h2.78v2.77h-2.78v-2.77Zm0,5.54h2.78v2.78h-2.78v-2.78Zm2.78-2.77h2.77v2.77h-2.77v-2.77Zm-5.55,0h2.77v2.77H1373v-2.77Z" transform="translate(-1373 -7051)"/>
</svg>
