<svg xmlns="http://www.w3.org/2000/svg" xmlns:xlink="http://www.w3.org/1999/xlink" width="85" height="85" viewBox="0 0 85 85">
  <metadata><?xpacket begin="﻿" id="W5M0MpCehiHzreSzNTczkc9d"?>
<x:xmpmeta xmlns:x="adobe:ns:meta/" x:xmptk="Adobe XMP Core 5.6-c142 79.160924, 2017/07/13-01:06:39        ">
   <rdf:RDF xmlns:rdf="http://www.w3.org/1999/02/22-rdf-syntax-ns#">
      <rdf:Description rdf:about=""/>
   </rdf:RDF>
</x:xmpmeta>
                                                                                                    
                                                                                                    
                                                                                                    
                                                                                                    
                                                                                                    
                                                                                                    
                                                                                                    
                                                                                                    
                                                                                                    
                                                                                                    
                                                                                                    
                                                                                                    
                                                                                                    
                                                                                                    
                                                                                                    
                                                                                                    
                                                                                                    
                                                                                                    
                                                                                                    
                                                                                                    
                           
<?xpacket end="w"?></metadata>
<defs>
    <style>
      .cls-1 {
        fill-rule: evenodd;
        fill: url(#linear-gradient);
      }
    </style>
    <linearGradient id="linear-gradient" x1="836.037" y1="7052" x2="786.963" y2="7137" gradientUnits="userSpaceOnUse">
      <stop offset="0" stop-color="#1da8cf"/>
      <stop offset="1" stop-color="#20356d"/>
    </linearGradient>
  </defs>
  <path id="Forma_1" data-name="Forma 1" class="cls-1" d="M814.349,7068.45a27.142,27.142,0,0,0-26.16,19.46l-0.985,3.29a22.108,22.108,0,0,1-5.523,9.25l-1.312,1.31a1.362,1.362,0,0,0,0,1.93,21.916,21.916,0,0,1,6.454,15.58,8.133,8.133,0,0,0,8.128,8.13,12.635,12.635,0,0,0,5.988-1.51l2.335-1.25v10.99a1.368,1.368,0,0,0,1.371,1.37h23.307a1.368,1.368,0,0,0,1.371-1.37v-10.08a17.2,17.2,0,0,1,5.075-12.25,24.651,24.651,0,0,0,7.263-17.54A27.341,27.341,0,0,0,814.349,7068.45Zm6.748,65.81H806.016v-11.1l10.247-5.52-1.3-2.41-15.325,8.25a9.946,9.946,0,0,1-4.687,1.18,5.39,5.39,0,0,1-5.387-5.39,24.614,24.614,0,0,0-6.311-16.52l0.368-.37a24.825,24.825,0,0,0,6.211-10.4l0.986-3.28a24.468,24.468,0,0,1,30.279-16.54v8.63h-1.634l-1.271,3.39-3.292-1.5-4.253,4.25,1.5,3.29-3.386,1.27v6.02l3.386,1.27-1.5,3.29,4.253,4.25,3.292-1.5,1.271,3.39H821.1v26.05Zm0.264-28.79-1.139-3.04-0.588-.22c-0.207-.07-0.414-0.16-0.614-0.25l-0.571-.26-2.954,1.34-1.564-1.57,1.342-2.95-0.265-.57c-0.093-.2-0.175-0.41-0.252-0.62l-0.218-.58-3.038-1.14v-2.22l3.038-1.14,0.218-.59c0.077-.2.158-0.41,0.252-0.61l0.265-.57-1.342-2.95,1.564-1.57,2.954,1.34,0.571-.26c0.2-.09.407-0.18,0.614-0.25l0.588-.22,1.138-3.04h2.214l1.139,3.04,0.588,0.22c0.207,0.07.414,0.16,0.615,0.25l0.57,0.26,2.954-1.34,1.565,1.57-1.343,2.95,0.265,0.57c0.093,0.2.176,0.41,0.252,0.61l0.218,0.59,3.038,1.14v2.22l-3.038,1.14-0.218.58c-0.076.21-.157,0.42-0.252,0.62l-0.265.57,1.343,2.95-1.565,1.57-2.954-1.34-0.57.26c-0.2.09-.408,0.18-0.615,0.25l-0.588.22-1.138,3.04h-2.214Zm11.1,5.89a19.93,19.93,0,0,0-5.878,14.19v8.71h-2.742v-26.05h1.634l1.271-3.39,3.291,1.5,4.253-4.25-1.5-3.29,3.386-1.27v-6.02l-3.386-1.27,1.5-3.29-4.253-4.25-3.291,1.5-1.271-3.39h-1.634v-7.69a24.611,24.611,0,0,1,15.08,22.66A21.934,21.934,0,0,1,832.459,7111.36Zm6.784-59.36H775.855a6.855,6.855,0,1,0,0,13.71h63.388l13.71-6.86Zm-57.9,10.97h-5.484a4.115,4.115,0,0,1,0-8.23h5.484v8.23Zm56.209-5.49H789.564v2.75h47.984v2.74H784.081v-2.74h2.742v-2.75h-2.742v-2.74h53.467v2.74Zm2.742-1.89,6.531,3.26-6.531,3.27v-6.53Zm-17.822,33.43a5.48,5.48,0,1,0,5.484,5.48A5.489,5.489,0,0,0,822.468,7089.02Zm0,8.22a2.74,2.74,0,1,1,2.742-2.74A2.744,2.744,0,0,1,822.468,7097.24Zm27.419,31.53a4.115,4.115,0,1,0,4.113,4.12A4.122,4.122,0,0,0,849.887,7128.77Zm0,5.49a1.37,1.37,0,1,1,1.371-1.37A1.375,1.375,0,0,1,849.887,7134.26Zm-76.774-30.16a4.11,4.11,0,1,0,4.113,4.11A4.114,4.114,0,0,0,773.113,7104.1Zm0,5.48a1.37,1.37,0,1,1,1.371-1.37A1.368,1.368,0,0,1,773.113,7109.58Zm-1.371,8.23h2.742v2.74h-2.742v-2.74Zm0,8.22h2.742v2.74h-2.742v-2.74Zm0,8.23h2.742V7137h-2.742v-2.74Zm76.774-30.16h2.742v2.74h-2.742v-2.74Zm0,8.22h2.742v2.74h-2.742v-2.74Zm0,8.23h2.742v2.74h-2.742v-2.74Z" transform="translate(-769 -7052)"/>
</svg>
