<svg xmlns="http://www.w3.org/2000/svg" width="328.03" height="323" viewBox="0 0 328.03 323">
  <metadata><?xpacket begin="﻿" id="W5M0MpCehiHzreSzNTczkc9d"?>
<x:xmpmeta xmlns:x="adobe:ns:meta/" x:xmptk="Adobe XMP Core 5.6-c142 79.160924, 2017/07/13-01:06:39        ">
   <rdf:RDF xmlns:rdf="http://www.w3.org/1999/02/22-rdf-syntax-ns#">
      <rdf:Description rdf:about=""/>
   </rdf:RDF>
</x:xmpmeta>
                                                                                                    
                                                                                                    
                                                                                                    
                                                                                                    
                                                                                                    
                                                                                                    
                                                                                                    
                                                                                                    
                                                                                                    
                                                                                                    
                                                                                                    
                                                                                                    
                                                                                                    
                                                                                                    
                                                                                                    
                                                                                                    
                                                                                                    
                                                                                                    
                                                                                                    
                                                                                                    
                           
<?xpacket end="w"?></metadata>
<defs>
    <style>
      .cls-1 {
        fill: none;
        stroke: #1da8cf;
        stroke-width: 1px;
        fill-rule: evenodd;
      }
    </style>
  </defs>
  <path id="Forma_1" data-name="Forma 1" class="cls-1" d="M1279.46,4348.05a7.127,7.127,0,0,0-7.13,7.13v204.06a7.125,7.125,0,1,0,14.25,0V4355.18A7.125,7.125,0,0,0,1279.46,4348.05Zm-142.49,0a7.134,7.134,0,0,0-7.13,7.13v204.06a7.125,7.125,0,1,0,14.25,0V4355.18A7.125,7.125,0,0,0,1136.97,4348.05Zm-57,28.53a7.125,7.125,0,0,0-7.12,7.13v147a7.125,7.125,0,1,0,14.25,0v-147A7.127,7.127,0,0,0,1079.97,4376.58Zm170.99-57.05a7.127,7.127,0,0,0-7.13,7.13v261.1a7.125,7.125,0,1,0,14.25,0v-261.1A7.119,7.119,0,0,0,1250.96,4319.53Zm-57,0a7.119,7.119,0,0,0-7.12,7.13v261.1a7.125,7.125,0,1,0,14.25,0v-261.1A7.121,7.121,0,0,0,1193.96,4319.53Zm-85.49,0a7.119,7.119,0,0,0-7.12,7.13v261.1a7.12,7.12,0,1,0,14.24,0v-261.1A7.119,7.119,0,0,0,1108.47,4319.53ZM1222.46,4291a7.125,7.125,0,0,0-7.12,7.13v307.74a7.125,7.125,0,1,0,14.25,0V4298.13A7.134,7.134,0,0,0,1222.46,4291Zm-56.99,0a7.127,7.127,0,0,0-7.13,7.13v307.74a7.125,7.125,0,1,0,14.25,0V4298.13A7.125,7.125,0,0,0,1165.47,4291Zm142.14,109.16a7.121,7.121,0,0,0-7.13,7.13v99.84a7.125,7.125,0,1,0,14.25,0v-99.84A7.119,7.119,0,0,0,1307.61,4400.16Zm31.27-52.11a7.125,7.125,0,0,0-7.12,7.13v204.06a7.125,7.125,0,1,0,14.25,0V4355.18A7.134,7.134,0,0,0,1338.88,4348.05Zm-59.42,0a7.127,7.127,0,0,0-7.13,7.13v204.06a7.125,7.125,0,1,0,14.25,0V4355.18A7.125,7.125,0,0,0,1279.46,4348.05Zm-142.49,0a7.134,7.134,0,0,0-7.13,7.13v204.06a7.125,7.125,0,1,0,14.25,0V4355.18A7.125,7.125,0,0,0,1136.97,4348.05Zm-84.1,71.25a7.129,7.129,0,0,0-7.13,7.14v66.75a7.125,7.125,0,1,0,14.25,0v-66.75A7.127,7.127,0,0,0,1052.87,4419.3Zm198.09-99.77a7.127,7.127,0,0,0-7.13,7.13v261.1a7.125,7.125,0,1,0,14.25,0v-261.1A7.119,7.119,0,0,0,1250.96,4319.53Zm-57,0a7.119,7.119,0,0,0-7.12,7.13v261.1a7.125,7.125,0,1,0,14.25,0v-261.1A7.121,7.121,0,0,0,1193.96,4319.53Zm-85.49,0a7.119,7.119,0,0,0-7.12,7.13v261.1a7.12,7.12,0,1,0,14.24,0v-261.1A7.119,7.119,0,0,0,1108.47,4319.53ZM1222.46,4291a7.125,7.125,0,0,0-7.12,7.13v307.74a7.125,7.125,0,1,0,14.25,0V4298.13A7.134,7.134,0,0,0,1222.46,4291Zm-56.99,0a7.127,7.127,0,0,0-7.13,7.13v307.74a7.125,7.125,0,1,0,14.25,0V4298.13A7.125,7.125,0,0,0,1165.47,4291Zm-139.36,70.21a7.134,7.134,0,0,0-7.13,7.13V4556.5a7.125,7.125,0,1,0,14.25,0V4368.34A7.125,7.125,0,0,0,1026.11,4361.21Zm0,0a7.134,7.134,0,0,0-7.13,7.13V4556.5a7.125,7.125,0,1,0,14.25,0V4368.34A7.125,7.125,0,0,0,1026.11,4361.21Z" transform="translate(-1018.47 -4290.5)"/>
</svg>
