<svg xmlns="http://www.w3.org/2000/svg" width="343" height="343" viewBox="0 0 343 343">
  <metadata><?xpacket begin="﻿" id="W5M0MpCehiHzreSzNTczkc9d"?>
<x:xmpmeta xmlns:x="adobe:ns:meta/" x:xmptk="Adobe XMP Core 5.6-c142 79.160924, 2017/07/13-01:06:39        ">
   <rdf:RDF xmlns:rdf="http://www.w3.org/1999/02/22-rdf-syntax-ns#">
      <rdf:Description rdf:about=""/>
   </rdf:RDF>
</x:xmpmeta>
                                                                                                    
                                                                                                    
                                                                                                    
                                                                                                    
                                                                                                    
                                                                                                    
                                                                                                    
                                                                                                    
                                                                                                    
                                                                                                    
                                                                                                    
                                                                                                    
                                                                                                    
                                                                                                    
                                                                                                    
                                                                                                    
                                                                                                    
                                                                                                    
                                                                                                    
                                                                                                    
                           
<?xpacket end="w"?></metadata>
<defs>
    <style>
      .cls-1 {
        fill: none;
        stroke: #1da8cf;
        stroke-width: 1px;
        fill-rule: evenodd;
      }
    </style>
  </defs>
  <path id="Forma_1" data-name="Forma 1" class="cls-1" d="M1351,3659.8a16.561,16.561,0,0,0-16.55-16.54,16.34,16.34,0,0,0-5.39.97l-24.72-30.89a16.371,16.371,0,0,0,2.53-8.7,16.527,16.527,0,0,0-28.37-11.54l-43.49-20.06a14.739,14.739,0,0,0,.15-1.49,16.508,16.508,0,0,0-32.08-5.52h-62.71a16.508,16.508,0,0,0-32.08,5.52,16.89,16.89,0,0,0,.2,2.01l-27.36,13.68a16.488,16.488,0,0,0-25.47,20.58l-24.72,30.9a16.347,16.347,0,0,0-5.39-.98,16.508,16.508,0,0,0-5.52,32.08v35.13a16.5,16.5,0,1,0,19.81,23.73l30.11,5.48a16.527,16.527,0,0,0,16.28,13.9c0.22,0,.43-0.05.65-0.06l10.52,26.31a16.5,16.5,0,1,0,24.33,21.94l47.34,13.53a16.488,16.488,0,0,0,10.93,14.49v40.65a16.545,16.545,0,1,0,11.03,0v-40.65a16.413,16.413,0,0,0,4.63-28.51l6.59-19.77,49.49,16.5a16.523,16.523,0,0,0,11,15.23v57.19a16.555,16.555,0,1,0,11.03,0v-57.19a16.274,16.274,0,0,0,9.96-21.24l42.33-35.27a16.3,16.3,0,0,0,8.39,2.37,16.508,16.508,0,0,0,5.52-32.08v-46.17A16.514,16.514,0,0,0,1351,3659.8Zm-60.68-60.67a5.515,5.515,0,1,1-5.51,5.51A5.523,5.523,0,0,1,1290.32,3599.13Zm-7.84,19.99a15.711,15.711,0,0,0,13.23,1.1l24.72,30.9a16.391,16.391,0,0,0-2.53,8.68,15.911,15.911,0,0,0,.27,2.6l-39.08,21.32L1250.63,3660a16.228,16.228,0,0,0,1.08-5.71,16.479,16.479,0,0,0-1.27-6.33Zm-69.38,90.33a16.249,16.249,0,0,0-7.09,1.66l-23.37-23.37,41.26-21.4a16.227,16.227,0,0,0,19.66,2.13l25.11,20.93-44.59,24.32A16.356,16.356,0,0,0,1213.1,3709.45Zm5.51,16.55a5.515,5.515,0,1,1-5.51-5.52A5.514,5.514,0,0,1,1218.61,3726Zm-83.4-60.75,9.27,29.84-46.99,24.36a16.592,16.592,0,0,0-7.06-3.88l-7.65-58.62,37.8-1.9A16.547,16.547,0,0,0,1135.21,3665.25Zm-4.86-16.48a5.52,5.52,0,1,1,5.52,5.52A5.523,5.523,0,0,1,1130.35,3648.77Zm17.44,57.03,13.99,45.09-59.04-19.69a15.547,15.547,0,0,0-.2-1.94Zm-0.04-37.34,16.43,16.42-9.76,5.06Zm3.01-12.6a16.249,16.249,0,0,0,1.66-7.09,16.491,16.491,0,0,0-1.39-6.6l26.19-24.45,42.22,31.66a16.36,16.36,0,0,0-.83,4.91,16.816,16.816,0,0,0,.23,2.25l-44.39,23.01Zm78.89-1.57a5.515,5.515,0,1,1,5.51,5.51A5.516,5.516,0,0,1,1229.65,3654.29Zm48.14,42.7,39.52,32.94-85.63-7.78Zm-59.18-130.96a5.515,5.515,0,1,1-5.51,5.52A5.525,5.525,0,0,1,1218.61,3566.03Zm-7.58,20.14a16.225,16.225,0,0,0,19.41-3.09l43.48,20.07c-0.04.5-.15,0.98-0.15,1.49a16.529,16.529,0,0,0,1.27,6.34l-32.03,28.83a16.194,16.194,0,0,0-17.01.72l-40.59-30.45Zm-7.95-9.11c0.13,0.36.23,0.74,0.37,1.09l-27.01,25.2-35.05-26.29h61.69Zm-78.24-11.03a5.515,5.515,0,1,1-5.52,5.52A5.516,5.516,0,0,1,1124.84,3566.03Zm-38.61,33.1a16.316,16.316,0,0,0-.21-2l27.36-13.68a16.44,16.44,0,0,0,20.62,1.86l34.25,25.69-24.8,23.14a16.315,16.315,0,0,0-23.36,9.89l-38.74,1.94-4.19-32.16A16.529,16.529,0,0,0,1086.23,3599.13Zm-16.55-5.52a5.515,5.515,0,1,1-5.52,5.52A5.516,5.516,0,0,1,1069.68,3593.61Zm-5.4,21.09a16.132,16.132,0,0,0,1.94.6l4.07,31.23-29.45,1.47a17.39,17.39,0,0,0-1.28-2.41Zm-38.73,34.07a5.515,5.515,0,1,1-5.52,5.52A5.516,5.516,0,0,1,1025.55,3648.77Zm0,77.23a5.52,5.52,0,1,1,5.51-5.52A5.525,5.525,0,0,1,1025.55,3726Zm46.39-2.69-30.11-5.47a16.49,16.49,0,0,0-10.77-12.89v-35.13a16.5,16.5,0,0,0,10.26-10.8l30.41-1.52,7.69,58.97A16.529,16.529,0,0,0,1071.94,3723.31Zm14.29,13.72a5.515,5.515,0,1,1,5.51-5.52A5.525,5.525,0,0,1,1086.23,3737.03Zm22.06,55.16a5.515,5.515,0,1,1,5.52-5.52A5.525,5.525,0,0,1,1108.29,3792.19Zm63.79,6.97-47.34-13.53a16.538,16.538,0,0,0-16.45-15.51c-0.22,0-.43.06-0.65,0.07l-10.53-26.32a15.765,15.765,0,0,0,2.1-2.22l66.6,22.2,9.84,31.69A16.565,16.565,0,0,0,1172.08,3799.16Zm13.44,86.8a5.515,5.515,0,1,1,5.51-5.51A5.523,5.523,0,0,1,1185.52,3885.96Zm0-71.71a5.515,5.515,0,1,1,5.51-5.51A5.523,5.523,0,0,1,1185.52,3814.25Zm0.18-23.52-7.01-22.58,13.09,4.36Zm9.57-28.69-20.6-6.86-16.92-54.53,14.62-7.58,25.84,25.84a16.249,16.249,0,0,0-1.66,7.09,16.475,16.475,0,0,0,6.41,12.98Zm72.99,123.92a5.515,5.515,0,1,1,5.51-5.51A5.523,5.523,0,0,1,1268.26,3885.96Zm0-88.25a5.52,5.52,0,1,1,5.51-5.52A5.531,5.531,0,0,1,1268.26,3797.71Zm8.39-19.71a16.255,16.255,0,0,0-21.37,4.05l-49.55-16.51,7.68-23.03a16.5,16.5,0,0,0,14.67-9.61l90.39,8.21a15.217,15.217,0,0,0,.51,1.62Zm11.56-86.69,35.25-19.23a16.494,16.494,0,0,0,5.48,3.25v46.17a16.454,16.454,0,0,0-2.88,1.35Zm46.24,51.23a5.515,5.515,0,1,1,5.52-5.51A5.514,5.514,0,0,1,1334.45,3742.54Zm0-77.22a5.515,5.515,0,1,1,5.52-5.52A5.516,5.516,0,0,1,1334.45,3665.32ZM1020.03,3555h11.03v11.03h-11.03V3555Zm0,22.06h11.03v11.04h-11.03v-11.04Zm11.03-11.03h11.04v11.03h-11.04v-11.03Zm-22.06,0h11.03v11.03H1009v-11.03Zm286.84,242.71h11.03v11.03h-11.03v-11.03Zm0,22.06h11.03v11.03h-11.03V3830.8Zm11.03-11.03h11.03v11.03h-11.03v-11.03Zm-22.06,0h11.03v11.03h-11.03v-11.03Zm44.13-242.71h11.03v11.04h-11.03v-11.04Zm0,22.07h11.03v11.03h-11.03v-11.03Zm11.03-11.03H1351v11.03h-11.03V3588.1Zm-22.07,0h11.04v11.03H1317.9V3588.1Zm-242.71,231.67h11.04v11.03h-11.04v-11.03Zm0,22.06h11.04v11.04h-11.04v-11.04Zm11.04-11.03h11.03v11.03h-11.03V3830.8Zm-22.07,0h11.03v11.03h-11.03V3830.8Zm-22.06-71.71h11.03v11.03H1042.1v-11.03Zm0,22.07h11.03v11.03H1042.1v-11.03Zm11.03-11.04h11.03v11.04h-11.03v-11.04Zm-22.07,0h11.04v11.04h-11.04v-11.04Z" transform="translate(-1008.5 -3554.5)"/>
</svg>
