<svg xmlns="http://www.w3.org/2000/svg" width="356" height="356" viewBox="0 0 356 356">
  <metadata><?xpacket begin="﻿" id="W5M0MpCehiHzreSzNTczkc9d"?>
<x:xmpmeta xmlns:x="adobe:ns:meta/" x:xmptk="Adobe XMP Core 5.6-c142 79.160924, 2017/07/13-01:06:39        ">
   <rdf:RDF xmlns:rdf="http://www.w3.org/1999/02/22-rdf-syntax-ns#">
      <rdf:Description rdf:about=""/>
   </rdf:RDF>
</x:xmpmeta>
                                                                                                    
                                                                                                    
                                                                                                    
                                                                                                    
                                                                                                    
                                                                                                    
                                                                                                    
                                                                                                    
                                                                                                    
                                                                                                    
                                                                                                    
                                                                                                    
                                                                                                    
                                                                                                    
                                                                                                    
                                                                                                    
                                                                                                    
                                                                                                    
                                                                                                    
                                                                                                    
                           
<?xpacket end="w"?></metadata>
<defs>
    <style>
      .cls-1 {
        fill: none;
        stroke: #1da8cf;
        stroke-width: 1px;
        fill-rule: evenodd;
      }
    </style>
  </defs>
  <path id="Forma_1" data-name="Forma 1" class="cls-1" d="M835.5,4027.76a109.405,109.405,0,0,0-7.294-8.54c-14.683-15.4-32.766-25.36-52.3-28.78a6.934,6.934,0,0,0-2.4,13.66c16.59,2.91,32.031,11.44,44.652,24.69a94.943,94.943,0,0,1,6.346,7.43A6.934,6.934,0,1,0,835.5,4027.76Zm11.266,18.01c-0.062-.13-0.129-0.27-0.2-0.41A7.047,7.047,0,1,0,846.761,4045.77Zm30.444,50.15c-2.843-5.96-7.551-15.84-7.635-19.1,8.108-19.99,5.151-42.1-8.354-62.33-20.768-31.12-63.334-53.7-101.212-53.7a124.536,124.536,0,0,0-37,5.6h-3.426q-1.314-3.645-2.972-7.16l19.773-19.77a6.941,6.941,0,0,0,0-9.81l-29.565-29.56a6.93,6.93,0,0,0-9.806,0l-19.77,19.77q-3.512-1.65-7.166-2.97v-27.96a6.931,6.931,0,0,0-6.934-6.93H621.33a6.93,6.93,0,0,0-6.933,6.93v27.96q-3.649,1.32-7.168,2.97l-19.769-19.77a6.935,6.935,0,0,0-9.805,0l-29.563,29.56a6.94,6.94,0,0,0,0,9.81l19.771,19.77q-1.656,3.51-2.972,7.16H536.933a6.938,6.938,0,0,0-6.933,6.94v41.81a6.93,6.93,0,0,0,6.933,6.93H564.89c0.876,2.43,1.868,4.83,2.971,7.17l-19.771,19.77a6.928,6.928,0,0,0,0,9.8l29.563,29.57a6.93,6.93,0,0,0,9.806,0l19.77-19.77q3.512,1.65,7.168,2.97v27.95a6.939,6.939,0,0,0,6.934,6.94h16.088A124.071,124.071,0,0,0,678.4,4179.1c0.22,0.69.862,3.9-1.892,13.48-2.146,7.46-5.439,15.75-8.344,23.07-1.944,4.89-3.624,9.12-4.639,12.32a6.934,6.934,0,0,0,6.609,9.03h98.973c3.252,0,7.719-1.46,10.531-8.39a67.962,67.962,0,0,0,2.868-10.5c0.824-3.75,2.755-12.52,4.675-13.58a1.375,1.375,0,0,1,.384.02,6.5,6.5,0,0,0,1.077.09c10.365,0,18.834.47,26.306,0.88,21.916,1.21,35.146,1.95,46.75-14.77,5.9-8.5,5.234-20.9,4.526-34.03-0.364-6.76-.741-13.75-0.072-19.55a61.768,61.768,0,0,1,6.14-4.58c6.536-4.49,12.708-8.72,12.708-15.17C885,4112.52,882.037,4106.06,877.205,4095.92Zm-248.94-3.32v-26.06a6.926,6.926,0,0,0-5.013-6.66,67.852,67.852,0,0,1-14.006-5.81,6.935,6.935,0,0,0-8.257,1.17l-18.433,18.43L562.8,4053.91l18.432-18.43a6.94,6.94,0,0,0,1.166-8.26,67.779,67.779,0,0,1-5.808-14.01,6.942,6.942,0,0,0-6.661-5.01H543.867v-27.94h26.061a6.928,6.928,0,0,0,6.661-5.01,68.07,68.07,0,0,1,5.808-14.01,6.922,6.922,0,0,0-1.165-8.25L562.8,3934.56l19.757-19.76,18.431,18.43a6.932,6.932,0,0,0,8.255,1.17,67.525,67.525,0,0,1,14.008-5.81,6.935,6.935,0,0,0,5.013-6.66v-26.06h27.941v26.06a6.933,6.933,0,0,0,5.012,6.66,67.908,67.908,0,0,1,14.006,5.8,6.933,6.933,0,0,0,8.257-1.16l18.431-18.43,19.759,19.76-18.434,18.43a6.926,6.926,0,0,0-1.166,8.25,68.027,68.027,0,0,1,5.807,14.01,6.928,6.928,0,0,0,6.662,5.01H740.6v27.94H714.542a6.942,6.942,0,0,0-6.661,5.01,67.672,67.672,0,0,1-5.809,14.01,6.936,6.936,0,0,0,1.165,8.26l18.434,18.43-19.757,19.76-18.432-18.43a6.933,6.933,0,0,0-8.256-1.17,67.959,67.959,0,0,1-14.008,5.81,6.925,6.925,0,0,0-5.012,6.66v26.06H628.265Zm236.177,28.56c-5.968,4.1-11.123,7.64-11.883,13-1.043,7.34-.606,15.46-0.183,23.31,0.525,9.74,1.12,20.78-2.07,25.37-6.9,9.94-12.867,10.04-34.59,8.83-7.168-.4-16.063-0.89-26.607-0.9-4.053-.48-10.9.28-15.475,9.17-2.323,4.51-3.57,10.18-4.671,15.19a74.109,74.109,0,0,1-2.059,8H680.112q0.456-1.155.94-2.37c9.986-25.15,16.312-43.59,6.684-51.92a110.241,110.241,0,0,1-36.221-62.37H663.14a6.939,6.939,0,0,0,6.933-6.94v-27.95q3.651-1.32,7.168-2.97l19.77,19.77a6.948,6.948,0,0,0,9.806,0l29.563-29.57a6.926,6.926,0,0,0,0-9.8l-19.771-19.77c1.1-2.34,2.1-4.74,2.972-7.17h27.957a6.931,6.931,0,0,0,6.934-6.93V3974.8c1.839-.09,3.684-0.14,5.533-0.14,33.038,0,71.591,20.43,89.678,47.52,7.752,11.62,15.238,29.68,6.884,49.79-2.72,6.56,1.314,15.64,8.12,29.92,2.2,4.62,5.393,11.31,6.238,14.44A66.089,66.089,0,0,1,864.442,4121.16Zm-222.207-174.5h-0.242a6.935,6.935,0,0,0,0,13.87h0.242A6.935,6.935,0,0,0,642.235,3946.66Zm-11.954,8.11a6.924,6.924,0,0,0-9.3-3.1,47.574,47.574,0,0,0-9.393,78.94,6.933,6.933,0,0,0,8.94-10.6,33.709,33.709,0,0,1,6.656-55.94A6.932,6.932,0,0,0,630.281,3954.77Zm11.955,12.69A26.77,26.77,0,1,0,669,3994.23,26.8,26.8,0,0,0,642.236,3967.46Zm0,39.68a12.905,12.905,0,1,1,12.9-12.91A12.92,12.92,0,0,1,642.235,4007.14Z" transform="translate(-529.5 -3881.5)"/>
</svg>
