<svg xmlns="http://www.w3.org/2000/svg" width="379" height="335" viewBox="0 0 379 335">
  <metadata><?xpacket begin="﻿" id="W5M0MpCehiHzreSzNTczkc9d"?>
<x:xmpmeta xmlns:x="adobe:ns:meta/" x:xmptk="Adobe XMP Core 5.6-c142 79.160924, 2017/07/13-01:06:39        ">
   <rdf:RDF xmlns:rdf="http://www.w3.org/1999/02/22-rdf-syntax-ns#">
      <rdf:Description rdf:about=""/>
   </rdf:RDF>
</x:xmpmeta>
                                                                                                    
                                                                                                    
                                                                                                    
                                                                                                    
                                                                                                    
                                                                                                    
                                                                                                    
                                                                                                    
                                                                                                    
                                                                                                    
                                                                                                    
                                                                                                    
                                                                                                    
                                                                                                    
                                                                                                    
                                                                                                    
                                                                                                    
                                                                                                    
                                                                                                    
                                                                                                    
                           
<?xpacket end="w"?></metadata>
<defs>
    <style>
      .cls-1 {
        fill: none;
        stroke: #1da8cf;
        stroke-width: 1px;
        fill-rule: evenodd;
      }
    </style>
  </defs>
  <path id="Forma_1" data-name="Forma 1" class="cls-1" d="M703.233,4799.07v-22.98c0-.01,0-0.02,0-0.03,0-4.61-3.787-7.51-7.833-9.34,4.045-1.84,7.832-4.74,7.832-9.34v-22.99c0-.01,0-0.02,0-0.03,0-8.26-12.182-11.06-16.186-11.98-8.065-1.85-18.7-2.87-29.956-2.87s-21.891,1.02-29.957,2.87c-3.948.91-15.845,3.65-16.17,11.65-0.007.11-.017,0.22-0.017,0.33v23.02c0,4.6,3.788,7.5,7.833,9.33-3.935,1.79-7.619,4.59-7.815,8.98-0.008.12-.018,0.24-0.018,0.36v23.02c0,4.6,3.787,7.51,7.833,9.34-3.953,1.79-7.651,4.61-7.818,9.03-0.006.1-.015,0.21-0.015,0.31v23.01c0,8.26,12.183,11.06,16.187,11.98,8.065,1.86,18.7,2.88,29.955,2.88s21.894-1.02,29.958-2.88c4-.92,16.185-3.72,16.185-11.98v-22.98c0-.01,0-0.02,0-0.03,0-4.6-3.787-7.51-7.832-9.34C699.446,4806.58,703.233,4803.68,703.233,4799.07Zm-46.141-68.53c15.672,0,26.558,1.99,31.975,3.82-5.417,1.83-16.3,3.81-31.975,3.81s-26.559-1.98-31.976-3.81C630.534,4732.53,641.42,4730.54,657.092,4730.54Zm35.067,108.88c-3.2,2.01-15.341,5.16-35.069,5.16s-31.868-3.15-35.068-5.16v-11.08c2.065,0.68,3.941,1.11,5.113,1.38,8.066,1.86,18.705,2.88,29.957,2.88s21.891-1.02,29.956-2.88c1.173-.26,3.047-0.7,5.111-1.38v11.08Zm-67.043-21.67c5.418-1.83,16.3-3.81,31.976-3.81s26.558,1.98,31.975,3.81c-5.417,1.83-16.3,3.81-31.975,3.81S630.533,4819.58,625.116,4817.75Zm67.043-20.03c-3.2,2.02-15.342,5.16-35.069,5.16s-31.868-3.14-35.068-5.16v-11.08c2.065,0.69,3.941,1.12,5.113,1.39,8.066,1.85,18.705,2.87,29.957,2.87s21.891-1.02,29.956-2.87c1.173-.27,3.047-0.7,5.111-1.39v11.08Zm-67.043-21.67c5.417-1.82,16.3-3.81,31.976-3.81s26.558,1.99,31.975,3.81c-5.417,1.83-16.3,3.82-31.975,3.82S630.533,4777.88,625.116,4776.05Zm67.043-20.02c-3.2,2.01-15.347,5.16-35.069,5.16s-31.863-3.15-35.068-5.16v-11.08c2.065,0.68,3.941,1.11,5.113,1.38,8.066,1.86,18.705,2.88,29.957,2.88s21.891-1.02,29.956-2.88c1.173-.27,3.047-0.7,5.111-1.38v11.08Zm73.235,3.21H735.863a5.528,5.528,0,0,0-5.538,5.52v85.34a5.528,5.528,0,0,0,5.538,5.52h29.531a5.527,5.527,0,0,0,5.537-5.52v-85.34A5.527,5.527,0,0,0,765.394,4759.24Zm-5.537,85.34H741.4v-74.31h18.457v74.31Zm110.6-51.03H840.93a5.528,5.528,0,0,0-5.538,5.52v51.03a5.528,5.528,0,0,0,5.538,5.52h29.531A5.527,5.527,0,0,0,876,4850.1v-51.03A5.527,5.527,0,0,0,870.461,4793.55Zm-5.537,51.03H846.467v-39.99h18.457v39.99Zm-46.881-122.5H788.512a5.527,5.527,0,0,0-5.537,5.52v122.5a5.527,5.527,0,0,0,5.537,5.52h29.531a5.527,5.527,0,0,0,5.537-5.52V4727.6A5.527,5.527,0,0,0,818.043,4722.08Zm-5.537,122.5H794.049V4733.12h18.457v111.46ZM895.932,4663H588.068A35.05,35.05,0,0,0,553,4697.95v7.63a5.537,5.537,0,0,0,11.074,0v-7.63a23.976,23.976,0,0,1,23.994-23.91H895.932a23.976,23.976,0,0,1,23.994,23.91v183.37H908.851v-0.8a5.537,5.537,0,0,0-11.074,0v0.8H623.967a5.52,5.52,0,1,0,0,11.04H919.926v1.84a23.982,23.982,0,0,1-23.994,23.91H588.068a23.982,23.982,0,0,1-23.994-23.91v-1.84h36.268a5.52,5.52,0,1,0,0-11.04H586.223V4697.95a1.841,1.841,0,0,1,1.845-1.84H895.932a1.841,1.841,0,0,1,1.845,1.84v158.97a5.537,5.537,0,0,0,11.074,0V4697.95a12.916,12.916,0,0,0-12.919-12.88H588.068a12.917,12.917,0,0,0-12.92,12.88v183.37H564.074V4745.03a5.537,5.537,0,0,0-11.074,0V4894.2a35.042,35.042,0,0,0,35.068,34.94h96.46c-1.151,11.9-3.837,29.23-6.4,34.75H654.144a16.555,16.555,0,1,0,0,33.11H829.855a16.555,16.555,0,1,0,0-33.11H805.869c-2.561-5.52-5.246-22.85-6.4-34.75h96.461A35.042,35.042,0,0,0,931,4894.2V4697.95A35.05,35.05,0,0,0,895.932,4663ZM695.643,4929.14h92.714c0.973,10.95,3.148,28.43,5.525,34.75H690.118C692.5,4957.57,694.671,4940.09,695.643,4929.14Zm134.212,45.79a5.515,5.515,0,1,1,0,11.03H654.144a5.515,5.515,0,1,1,0-11.03H829.855Z" transform="translate(-552.5 -4662.5)"/>
</svg>
