<svg xmlns="http://www.w3.org/2000/svg" xmlns:xlink="http://www.w3.org/1999/xlink" width="79" height="68" viewBox="0 0 79 68">
  <metadata><?xpacket begin="﻿" id="W5M0MpCehiHzreSzNTczkc9d"?>
<x:xmpmeta xmlns:x="adobe:ns:meta/" x:xmptk="Adobe XMP Core 5.6-c142 79.160924, 2017/07/13-01:06:39        ">
   <rdf:RDF xmlns:rdf="http://www.w3.org/1999/02/22-rdf-syntax-ns#">
      <rdf:Description rdf:about=""/>
   </rdf:RDF>
</x:xmpmeta>
                                                                                                    
                                                                                                    
                                                                                                    
                                                                                                    
                                                                                                    
                                                                                                    
                                                                                                    
                                                                                                    
                                                                                                    
                                                                                                    
                                                                                                    
                                                                                                    
                                                                                                    
                                                                                                    
                                                                                                    
                                                                                                    
                                                                                                    
                                                                                                    
                                                                                                    
                                                                                                    
                           
<?xpacket end="w"?></metadata>
<defs>
    <style>
      .cls-1 {
        fill-rule: evenodd;
        fill: url(#linear-gradient);
      }
    </style>
    <linearGradient id="linear-gradient" x1="1434.5" y1="1598" x2="1434.5" y2="1530" gradientUnits="userSpaceOnUse">
      <stop offset="0" stop-color="#253961"/>
      <stop offset="1" stop-color="#1da2c9"/>
    </linearGradient>
  </defs>
  <path id="Forma_1" data-name="Forma 1" class="cls-1" d="M1450.62,1552.45h-32.24a1.25,1.25,0,0,0,0,2.5h32.24A1.25,1.25,0,0,0,1450.62,1552.45Zm20.15-7.8h-17.23v-9.04a5.6,5.6,0,0,0-5.57-5.61h-26.94a5.6,5.6,0,0,0-5.57,5.61v9.04h-17.23a3.254,3.254,0,0,0-3.23,3.26v46.83a3.248,3.248,0,0,0,3.23,3.26h72.54a3.248,3.248,0,0,0,3.23-3.26v-17.32a1.245,1.245,0,1,0-2.49,0v17.32a0.753,0.753,0,0,1-.74.75h-72.54a0.753,0.753,0,0,1-.74-0.75v-33.81l28.53,13.47v4.43a3.248,3.248,0,0,0,3.23,3.26h2.35a1.255,1.255,0,0,0,0-2.51h-2.35a0.753,0.753,0,0,1-.74-0.75v-4.37a0.753,0.753,0,0,1,.74-0.75h10.5a0.753,0.753,0,0,1,.74.75v4.37a0.753,0.753,0,0,1-.74.75h-2.35a1.255,1.255,0,0,0,0,2.51h2.35a3.248,3.248,0,0,0,3.23-3.26v-4.43l28.53-13.47v10.64a1.245,1.245,0,1,0,2.49,0v-23.66A3.254,3.254,0,0,0,1470.77,1544.65Zm-52.82-9.04a3.092,3.092,0,0,1,3.08-3.1h26.94a3.092,3.092,0,0,1,3.08,3.1v9.04h-2.5v-8.37a1.25,1.25,0,0,0-1.25-1.25h-25.6a1.25,1.25,0,0,0-1.25,1.25v8.37h-2.5v-9.04h0Zm28.11,1.93v7.11h-23.12v-7.11h23.12Zm25.45,20.62-29.53,13.94a3.268,3.268,0,0,0-2.23-.9h-10.5a3.279,3.279,0,0,0-2.23.9l-29.53-13.94v-9.24a1.754,1.754,0,0,1,1.75-1.76h70.52a1.754,1.754,0,0,1,1.75,1.76v9.24h0Z" transform="translate(-1395 -1530)"/>
</svg>
