<svg xmlns="http://www.w3.org/2000/svg" xmlns:xlink="http://www.w3.org/1999/xlink" width="79" height="70.03" viewBox="0 0 79 70.03">
  <metadata><?xpacket begin="﻿" id="W5M0MpCehiHzreSzNTczkc9d"?>
<x:xmpmeta xmlns:x="adobe:ns:meta/" x:xmptk="Adobe XMP Core 5.6-c142 79.160924, 2017/07/13-01:06:39        ">
   <rdf:RDF xmlns:rdf="http://www.w3.org/1999/02/22-rdf-syntax-ns#">
      <rdf:Description rdf:about=""/>
   </rdf:RDF>
</x:xmpmeta>
                                                                                                    
                                                                                                    
                                                                                                    
                                                                                                    
                                                                                                    
                                                                                                    
                                                                                                    
                                                                                                    
                                                                                                    
                                                                                                    
                                                                                                    
                                                                                                    
                                                                                                    
                                                                                                    
                                                                                                    
                                                                                                    
                                                                                                    
                                                                                                    
                                                                                                    
                                                                                                    
                           
<?xpacket end="w"?></metadata>
<defs>
    <style>
      .cls-1 {
        fill-rule: evenodd;
        fill: url(#linear-gradient);
      }
    </style>
    <linearGradient id="linear-gradient" x1="1433.5" y1="1323.03" x2="1433.5" y2="1253" gradientUnits="userSpaceOnUse">
      <stop offset="0" stop-color="#253961"/>
      <stop offset="1" stop-color="#1da2c9"/>
    </linearGradient>
  </defs>
  <path id="Forma_1" data-name="Forma 1" class="cls-1" d="M1404.98,1265.92a3.5,3.5,0,1,0,3.5,3.5A3.5,3.5,0,0,0,1404.98,1265.92Zm0,4.69a1.19,1.19,0,1,1,1.19-1.19A1.193,1.193,0,0,1,1404.98,1270.61Zm9.68-4.69a3.5,3.5,0,1,0,3.5,3.5A3.5,3.5,0,0,0,1414.66,1265.92Zm0,4.69a1.19,1.19,0,0,1,0-2.38A1.19,1.19,0,0,1,1414.66,1270.61Zm9.68-4.69a3.5,3.5,0,1,0,3.5,3.5A3.506,3.506,0,0,0,1424.34,1265.92Zm0,4.69a1.19,1.19,0,1,1,1.18-1.19A1.186,1.186,0,0,1,1424.34,1270.61Zm39.77,29.31h-42.12a1.155,1.155,0,1,0,0,2.31h42.12A1.155,1.155,0,1,0,1464.11,1299.92Zm7.73-13.19a1.161,1.161,0,0,0,1.16-1.16v-16.48a4.285,4.285,0,0,0-4.28-4.28h-32.84v-8.48a3.327,3.327,0,0,0-3.32-3.33h-15.2a1.155,1.155,0,1,0,0,2.31h15.2a1.022,1.022,0,0,1,1.01,1.02v25.87a1.02,1.02,0,0,1-1.01,1.01h-3.04a1.81,1.81,0,0,0-1.81,1.81v5.83l-5.86-6.75a2.562,2.562,0,0,0-1.95-.89h-22.57a1.022,1.022,0,0,1-1.02-1.01v-25.87a1.024,1.024,0,0,1,1.02-1.02h14.63a1.155,1.155,0,1,0,0-2.31h-14.63a3.329,3.329,0,0,0-3.33,3.33v25.87a3.327,3.327,0,0,0,3.33,3.32h16.35v20.85a4.287,4.287,0,0,0,4.29,4.28h4.15v10.36a2.013,2.013,0,0,0,3.53,1.32l9.87-11.37a0.89,0.89,0,0,1,.68-0.31h32.52a4.285,4.285,0,0,0,4.28-4.28v-15.4a1.155,1.155,0,1,0-2.31,0v15.4a1.972,1.972,0,0,1-1.97,1.96H1436.2a3.235,3.235,0,0,0-2.43,1.11l-9.33,10.76v-9.77a2.1,2.1,0,0,0-2.1-2.1h-4.37a1.967,1.967,0,0,1-1.97-1.97v-20.84h3.9a0.261,0.261,0,0,1,.2.1l1.36,1.56a1.159,1.159,0,0,0,.53,2.19h1.37l3.57,4.11h-4.94a1.16,1.16,0,0,0,0,2.32h42.12a1.16,1.16,0,0,0,0-2.32h-34.49a1.71,1.71,0,0,0,.4-1.12v-2.99h34.09a1.16,1.16,0,0,0,0-2.32h-34.09v-1.53h2.53a3.323,3.323,0,0,0,3.25-2.59h28.31a1.155,1.155,0,1,0,0-2.31h-28.23v-4.12h28.23a1.155,1.155,0,1,0,0-2.31h-28.23v-7.06h32.84a1.972,1.972,0,0,1,1.97,1.96v16.48A1.152,1.152,0,0,0,1471.84,1286.73Z" transform="translate(-1394 -1253)"/>
</svg>
