<svg xmlns="http://www.w3.org/2000/svg" xmlns:xlink="http://www.w3.org/1999/xlink" width="76" height="76" viewBox="0 0 76 76">
  <metadata><?xpacket begin="﻿" id="W5M0MpCehiHzreSzNTczkc9d"?>
<x:xmpmeta xmlns:x="adobe:ns:meta/" x:xmptk="Adobe XMP Core 5.6-c142 79.160924, 2017/07/13-01:06:39        ">
   <rdf:RDF xmlns:rdf="http://www.w3.org/1999/02/22-rdf-syntax-ns#">
      <rdf:Description rdf:about=""/>
   </rdf:RDF>
</x:xmpmeta>
                                                                                                    
                                                                                                    
                                                                                                    
                                                                                                    
                                                                                                    
                                                                                                    
                                                                                                    
                                                                                                    
                                                                                                    
                                                                                                    
                                                                                                    
                                                                                                    
                                                                                                    
                                                                                                    
                                                                                                    
                                                                                                    
                                                                                                    
                                                                                                    
                                                                                                    
                                                                                                    
                           
<?xpacket end="w"?></metadata>
<defs>
    <style>
      .cls-1 {
        fill-rule: evenodd;
        fill: url(#linear-gradient);
      }
    </style>
    <linearGradient id="linear-gradient" x1="1117" y1="1318" x2="1117" y2="1242" gradientUnits="userSpaceOnUse">
      <stop offset="0" stop-color="#253961"/>
      <stop offset="1" stop-color="#1da2c9"/>
    </linearGradient>
  </defs>
  <path id="Forma_1" data-name="Forma 1" class="cls-1" d="M1085.58,1274.49h11.96a56.591,56.591,0,0,0,49.15-28.54l0.67,2.17a1.122,1.122,0,0,0,1.06.78,1.4,1.4,0,0,0,.34-0.05,1.129,1.129,0,0,0,.73-1.4l-1.46-4.67a1.129,1.129,0,0,0-1.4-.73l-4.67,1.46a1.116,1.116,0,1,0,.67,2.13l2.04-.64a54.185,54.185,0,0,1-47.13,27.26h-11.96A1.115,1.115,0,1,0,1085.58,1274.49Zm68.31,41.28h-9.84v-38.36a1.115,1.115,0,1,0-2.23,0v38.36h-6.42v-46.72a0.333,0.333,0,0,1,.33-0.33h5.76a0.327,0.327,0,0,1,.33.33v4.18a1.115,1.115,0,0,0,2.23,0v-4.18a2.556,2.556,0,0,0-2.56-2.55h-5.76a2.548,2.548,0,0,0-2.55,2.55v46.72h-3.54V1277.7a2.563,2.563,0,0,0-2.55-2.56h-5.77a2.556,2.556,0,0,0-2.55,2.56v15.05a1.11,1.11,0,1,0,2.22,0V1277.7a0.327,0.327,0,0,1,.33-0.33h5.77a0.318,0.318,0,0,1,.32.33v38.07h-6.42V1297a1.11,1.11,0,1,0-2.22,0v18.77h-3.54V1284.9a2.548,2.548,0,0,0-2.55-2.55h-5.77a2.554,2.554,0,0,0-2.55,2.55v30.87h-3.54v-6.3a1.11,1.11,0,1,0-2.22,0v6.3h-6.42v-26.55a0.324,0.324,0,0,1,.32-0.33h5.77a0.333,0.333,0,0,1,.33.33v15.92a1.11,1.11,0,1,0,2.22,0v-15.92a2.548,2.548,0,0,0-2.55-2.55h-5.77a2.554,2.554,0,0,0-2.55,2.55v26.55h-9.84a1.115,1.115,0,0,0,0,2.23h73.78A1.115,1.115,0,0,0,1153.89,1315.77Zm-40.89,0h-6.41V1284.9a0.324,0.324,0,0,1,.32-0.33h5.77a0.324,0.324,0,0,1,.32.33v30.87Z" transform="translate(-1079 -1242)"/>
</svg>
