<svg xmlns="http://www.w3.org/2000/svg" xmlns:xlink="http://www.w3.org/1999/xlink" width="85" height="85" viewBox="0 0 85 85">
  <metadata><?xpacket begin="﻿" id="W5M0MpCehiHzreSzNTczkc9d"?>
<x:xmpmeta xmlns:x="adobe:ns:meta/" x:xmptk="Adobe XMP Core 5.6-c142 79.160924, 2017/07/13-01:06:39        ">
   <rdf:RDF xmlns:rdf="http://www.w3.org/1999/02/22-rdf-syntax-ns#">
      <rdf:Description rdf:about=""/>
   </rdf:RDF>
</x:xmpmeta>
                                                                                                    
                                                                                                    
                                                                                                    
                                                                                                    
                                                                                                    
                                                                                                    
                                                                                                    
                                                                                                    
                                                                                                    
                                                                                                    
                                                                                                    
                                                                                                    
                                                                                                    
                                                                                                    
                                                                                                    
                                                                                                    
                                                                                                    
                                                                                                    
                                                                                                    
                                                                                                    
                           
<?xpacket end="w"?></metadata>
<defs>
    <style>
      .cls-1 {
        fill-rule: evenodd;
        fill: url(#linear-gradient);
      }
    </style>
    <linearGradient id="linear-gradient" x1="1119.5" y1="1602" x2="1119.5" y2="1517" gradientUnits="userSpaceOnUse">
      <stop offset="0" stop-color="#253961"/>
      <stop offset="1" stop-color="#1da2c9"/>
    </linearGradient>
  </defs>
  <path id="Forma_1" data-name="Forma 1" class="cls-1" d="M1125.09,1599.51h-1.48v-11.97a1.245,1.245,0,1,0-2.49,0v11.97h-3.56v-32.92a2.86,2.86,0,0,0-1.81-2.66v-8.62a1.245,1.245,0,1,0-2.49,0v8.42h-3.55v-13.26a2.864,2.864,0,0,0-2.86-2.85h-6.45a2.855,2.855,0,0,0-2.85,2.85v32.34a1.245,1.245,0,1,0,2.49,0v-32.34a0.359,0.359,0,0,1,.36-0.36h6.45a0.367,0.367,0,0,1,.37.36v13.46a2.869,2.869,0,0,0-1.82,2.66v32.92h-3.55v-10.36a2.866,2.866,0,0,0-2.86-2.86h-5v-5.2a2.855,2.855,0,0,0-2.85-2.85h-6.45a2.864,2.864,0,0,0-2.86,2.85v18.42h-3.58a1.245,1.245,0,1,0,0,2.49h46.84A1.245,1.245,0,0,0,1125.09,1599.51Zm-33.59-13.02a2.86,2.86,0,0,0-1.81,2.66v10.36h-5.37v-18.42a0.367,0.367,0,0,1,.37-0.36h6.45a0.359,0.359,0,0,1,.36.36v5.4Zm7.86,13.02h-7.18v-10.36a0.376,0.376,0,0,1,.37-0.37h6.44a0.369,0.369,0,0,1,.37.37v10.36Zm15.71,0h-7.18v-32.92a0.376,0.376,0,0,1,.37-0.37h6.45a0.367,0.367,0,0,1,.36.37v32.92Zm45.68,0h-3.91v-10.36a2.864,2.864,0,0,0-2.85-2.86h-6.45a2.872,2.872,0,0,0-2.86,2.86v3.59h-3.55v-14.47a1.245,1.245,0,0,0-2.49,0v14.67a2.86,2.86,0,0,0-1.81,2.66v3.91h-3.56v-20.03a2.86,2.86,0,0,0-1.81-2.66v-19.9a0.376,0.376,0,0,1,.37-0.37h6.44a0.369,0.369,0,0,1,.37.37v16.52a1.245,1.245,0,0,0,2.49,0v-16.52a2.866,2.866,0,0,0-2.86-2.86h-6.44a2.866,2.866,0,0,0-2.86,2.86v19.7h-3.55v-30.98a2.859,2.859,0,0,0-2.86-2.86h-6.44a2.859,2.859,0,0,0-2.86,2.86v4.75a1.245,1.245,0,1,0,2.49,0v-4.75a0.369,0.369,0,0,1,.37-0.37h6.44a0.376,0.376,0,0,1,.37.37v31.18a2.86,2.86,0,0,0-1.81,2.66v3.28a1.245,1.245,0,0,0,2.49,0v-3.28a0.359,0.359,0,0,1,.36-0.36h6.45a0.359,0.359,0,0,1,.36.36v20.03h-1.45a1.245,1.245,0,0,0,0,2.49h31.42A1.245,1.245,0,1,0,1160.75,1599.51Zm-14.25,0h-7.18v-3.91a0.361,0.361,0,0,1,.36-0.37h6.45a0.369,0.369,0,0,1,.37.37v3.91Zm7.85,0h-5.36v-3.91a2.869,2.869,0,0,0-1.82-2.66v-3.79a0.367,0.367,0,0,1,.37-0.36h6.45a0.359,0.359,0,0,1,.36.36v10.36Zm-37.48-61.91a3.661,3.661,0,0,0,2.74,1.23c0.11,0,.23-0.01.35-0.02a3.687,3.687,0,0,0,2.8-1.78l8.59-14.5a3.663,3.663,0,1,0-6.3-3.74l-6.04,10.19-0.96-1.08a3.662,3.662,0,1,0-5.48,4.86Zm-2.73-7.34a1.2,1.2,0,0,1,.39-0.81,1.178,1.178,0,0,1,.78-0.29h0.07a1.2,1.2,0,0,1,.81.39l2.09,2.36a1.258,1.258,0,0,0,2.01-.19l6.9-11.66a1.137,1.137,0,0,1,.72-0.53,1.157,1.157,0,0,1,.89.12,1.188,1.188,0,0,1,.54.72,1.16,1.16,0,0,1-.13.89l-8.59,14.5a1.172,1.172,0,0,1-.9.57h0a0.448,0.448,0,0,1-.11.01,1.175,1.175,0,0,1-.88-0.4l-4.3-4.83A1.193,1.193,0,0,1,1114.14,1530.26Z" transform="translate(-1077 -1517)"/>
</svg>
